<?xml version="1.0" encoding="UTF-8" standalone="no"?>
<!DOCTYPE svg PUBLIC "-//W3C//DTD SVG 1.1//EN"
 "http://www.w3.org/Graphics/SVG/1.1/DTD/svg11.dtd">
<!-- Generated by graphviz version 2.43.0 (0)
 -->
<!-- Title: %3 Pages: 1 -->
<svg width="435pt" height="392pt"
 viewBox="0.00 0.00 435.40 392.00" xmlns="http://www.w3.org/2000/svg" xmlns:xlink="http://www.w3.org/1999/xlink">
<g id="graph0" class="graph" transform="scale(1 1) rotate(0) translate(4 388)">
<title>%3</title>
<polygon fill="white" stroke="transparent" points="-4,4 -4,-388 431.4,-388 431.4,4 -4,4"/>
<!-- suspect&#45;3 -->
<g id="node1" class="node">
<title>suspect&#45;3</title>
<ellipse fill="none" stroke="black" cx="84.4" cy="-192" rx="55.49" ry="18"/>
<text text-anchor="middle" x="84.4" y="-188.3" font-family="Times,serif" font-size="14.00">suspect&#45;3</text>
</g>
<!-- The&#45;1 -->
<g id="node2" class="node">
<title>The&#45;1</title>
<ellipse fill="none" stroke="black" cx="36.4" cy="-105" rx="36.29" ry="18"/>
<text text-anchor="middle" x="36.4" y="-101.3" font-family="Times,serif" font-size="14.00">The&#45;1</text>
</g>
<!-- suspect&#45;3&#45;&gt;The&#45;1 -->
<g id="edge1" class="edge">
<title>suspect&#45;3&#45;&gt;The&#45;1</title>
<path fill="none" stroke="black" d="M74.91,-174.21C68.03,-162.02 58.6,-145.32 50.79,-131.49"/>
<polygon fill="black" stroke="black" points="53.66,-129.46 45.7,-122.47 47.57,-132.9 53.66,-129.46"/>
<text text-anchor="middle" x="75.4" y="-144.8" font-family="Times,serif" font-size="14.00">det</text>
</g>
<!-- main&#45;2 -->
<g id="node3" class="node">
<title>main&#45;2</title>
<ellipse fill="none" stroke="black" cx="133.4" cy="-105" rx="42.49" ry="18"/>
<text text-anchor="middle" x="133.4" y="-101.3" font-family="Times,serif" font-size="14.00">main&#45;2</text>
</g>
<!-- suspect&#45;3&#45;&gt;main&#45;2 -->
<g id="edge2" class="edge">
<title>suspect&#45;3&#45;&gt;main&#45;2</title>
<path fill="none" stroke="black" d="M94.08,-174.21C101.06,-162.1 110.61,-145.53 118.55,-131.76"/>
<polygon fill="black" stroke="black" points="121.77,-133.17 123.74,-122.76 115.71,-129.67 121.77,-133.17"/>
<text text-anchor="middle" x="132.4" y="-144.8" font-family="Times,serif" font-size="14.00">amod</text>
</g>
<!-- man&#45;6 -->
<g id="node4" class="node">
<title>man&#45;6</title>
<ellipse fill="none" stroke="black" cx="221.4" cy="-279" rx="39.79" ry="18"/>
<text text-anchor="middle" x="221.4" y="-275.3" font-family="Times,serif" font-size="14.00">man&#45;6</text>
</g>
<!-- man&#45;6&#45;&gt;suspect&#45;3 -->
<g id="edge3" class="edge">
<title>man&#45;6&#45;&gt;suspect&#45;3</title>
<path fill="none" stroke="black" d="M196.14,-264.94C184.23,-258.59 169.92,-250.68 157.4,-243 143.04,-234.19 127.58,-223.75 114.6,-214.69"/>
<polygon fill="black" stroke="black" points="116.25,-211.57 106.06,-208.68 112.23,-217.3 116.25,-211.57"/>
<text text-anchor="middle" x="177.4" y="-231.8" font-family="Times,serif" font-size="14.00">nsubj</text>
</g>
<!-- is&#45;4 -->
<g id="node5" class="node">
<title>is&#45;4</title>
<ellipse fill="none" stroke="black" cx="185.4" cy="-192" rx="27.1" ry="18"/>
<text text-anchor="middle" x="185.4" y="-188.3" font-family="Times,serif" font-size="14.00">is&#45;4</text>
</g>
<!-- man&#45;6&#45;&gt;is&#45;4 -->
<g id="edge4" class="edge">
<title>man&#45;6&#45;&gt;is&#45;4</title>
<path fill="none" stroke="black" d="M214.28,-261.21C209.17,-249.14 202.18,-232.64 196.36,-218.89"/>
<polygon fill="black" stroke="black" points="199.49,-217.31 192.37,-209.47 193.05,-220.04 199.49,-217.31"/>
<text text-anchor="middle" x="218.9" y="-231.8" font-family="Times,serif" font-size="14.00">cop</text>
</g>
<!-- a&#45;5 -->
<g id="node6" class="node">
<title>a&#45;5</title>
<ellipse fill="none" stroke="black" cx="257.4" cy="-192" rx="27" ry="18"/>
<text text-anchor="middle" x="257.4" y="-188.3" font-family="Times,serif" font-size="14.00">a&#45;5</text>
</g>
<!-- man&#45;6&#45;&gt;a&#45;5 -->
<g id="edge5" class="edge">
<title>man&#45;6&#45;&gt;a&#45;5</title>
<path fill="none" stroke="black" d="M228.51,-261.21C233.62,-249.14 240.61,-232.64 246.43,-218.89"/>
<polygon fill="black" stroke="black" points="249.74,-220.04 250.42,-209.47 243.3,-217.31 249.74,-220.04"/>
<text text-anchor="middle" x="254.4" y="-231.8" font-family="Times,serif" font-size="14.00">det</text>
</g>
<!-- named&#45;7 -->
<g id="node8" class="node">
<title>named&#45;7</title>
<ellipse fill="none" stroke="black" cx="353.4" cy="-192" rx="50.89" ry="18"/>
<text text-anchor="middle" x="353.4" y="-188.3" font-family="Times,serif" font-size="14.00">named&#45;7</text>
</g>
<!-- man&#45;6&#45;&gt;named&#45;7 -->
<g id="edge7" class="edge">
<title>man&#45;6&#45;&gt;named&#45;7</title>
<path fill="none" stroke="black" d="M243.19,-263.96C264.45,-250.27 297.04,-229.29 321.27,-213.69"/>
<polygon fill="black" stroke="black" points="323.27,-216.56 329.78,-208.21 319.48,-210.68 323.27,-216.56"/>
<text text-anchor="middle" x="305.9" y="-231.8" font-family="Times,serif" font-size="14.00">acl</text>
</g>
<!-- ROOT&#45;0 -->
<g id="node7" class="node">
<title>ROOT&#45;0</title>
<ellipse fill="none" stroke="black" cx="221.4" cy="-366" rx="46.29" ry="18"/>
<text text-anchor="middle" x="221.4" y="-362.3" font-family="Times,serif" font-size="14.00">ROOT&#45;0</text>
</g>
<!-- ROOT&#45;0&#45;&gt;man&#45;6 -->
<g id="edge6" class="edge">
<title>ROOT&#45;0&#45;&gt;man&#45;6</title>
<path fill="none" stroke="black" d="M221.4,-347.8C221.4,-336.16 221.4,-320.55 221.4,-307.24"/>
<polygon fill="black" stroke="black" points="224.9,-307.18 221.4,-297.18 217.9,-307.18 224.9,-307.18"/>
<text text-anchor="middle" x="236.4" y="-318.8" font-family="Times,serif" font-size="14.00">root</text>
</g>
<!-- Baker&#45;9 -->
<g id="node9" class="node">
<title>Baker&#45;9</title>
<ellipse fill="none" stroke="black" cx="353.4" cy="-105" rx="46.59" ry="18"/>
<text text-anchor="middle" x="353.4" y="-101.3" font-family="Times,serif" font-size="14.00">Baker&#45;9</text>
</g>
<!-- named&#45;7&#45;&gt;Baker&#45;9 -->
<g id="edge9" class="edge">
<title>named&#45;7&#45;&gt;Baker&#45;9</title>
<path fill="none" stroke="black" d="M353.4,-173.8C353.4,-162.16 353.4,-146.55 353.4,-133.24"/>
<polygon fill="black" stroke="black" points="356.9,-133.18 353.4,-123.18 349.9,-133.18 356.9,-133.18"/>
<text text-anchor="middle" x="364.4" y="-144.8" font-family="Times,serif" font-size="14.00">obj</text>
</g>
<!-- Sean&#45;8 -->
<g id="node10" class="node">
<title>Sean&#45;8</title>
<ellipse fill="none" stroke="black" cx="353.4" cy="-18" rx="42.49" ry="18"/>
<text text-anchor="middle" x="353.4" y="-14.3" font-family="Times,serif" font-size="14.00">Sean&#45;8</text>
</g>
<!-- Baker&#45;9&#45;&gt;Sean&#45;8 -->
<g id="edge8" class="edge">
<title>Baker&#45;9&#45;&gt;Sean&#45;8</title>
<path fill="none" stroke="black" d="M353.4,-86.8C353.4,-75.16 353.4,-59.55 353.4,-46.24"/>
<polygon fill="black" stroke="black" points="356.9,-46.18 353.4,-36.18 349.9,-46.18 356.9,-46.18"/>
<text text-anchor="middle" x="390.4" y="-57.8" font-family="Times,serif" font-size="14.00">compound</text>
</g>
</g>
</svg>
