<?xml version="1.0" encoding="UTF-8" standalone="no"?>
<!DOCTYPE svg PUBLIC "-//W3C//DTD SVG 1.1//EN"
 "http://www.w3.org/Graphics/SVG/1.1/DTD/svg11.dtd">
<!-- Generated by graphviz version 2.43.0 (0)
 -->
<!-- Title: %3 Pages: 1 -->
<svg width="647pt" height="392pt"
 viewBox="0.00 0.00 647.14 392.00" xmlns="http://www.w3.org/2000/svg" xmlns:xlink="http://www.w3.org/1999/xlink">
<g id="graph0" class="graph" transform="scale(1 1) rotate(0) translate(4 388)">
<title>%3</title>
<polygon fill="white" stroke="transparent" points="-4,4 -4,-388 643.14,-388 643.14,4 -4,4"/>
<!-- suggestion&#45;2 -->
<g id="node1" class="node">
<title>suggestion&#45;2</title>
<ellipse fill="none" stroke="black" cx="70.19" cy="-192" rx="70.39" ry="18"/>
<text text-anchor="middle" x="70.19" y="-188.3" font-family="Times,serif" font-size="14.00">suggestion&#45;2</text>
</g>
<!-- The&#45;1 -->
<g id="node2" class="node">
<title>The&#45;1</title>
<ellipse fill="none" stroke="black" cx="57.19" cy="-105" rx="36.29" ry="18"/>
<text text-anchor="middle" x="57.19" y="-101.3" font-family="Times,serif" font-size="14.00">The&#45;1</text>
</g>
<!-- suggestion&#45;2&#45;&gt;The&#45;1 -->
<g id="edge1" class="edge">
<title>suggestion&#45;2&#45;&gt;The&#45;1</title>
<path fill="none" stroke="black" d="M67.56,-173.8C65.78,-162.16 63.4,-146.55 61.36,-133.24"/>
<polygon fill="black" stroke="black" points="64.79,-132.53 59.82,-123.18 57.87,-133.59 64.79,-132.53"/>
<text text-anchor="middle" x="77.19" y="-144.8" font-family="Times,serif" font-size="14.00">det</text>
</g>
<!-- supported&#45;4 -->
<g id="node3" class="node">
<title>supported&#45;4</title>
<ellipse fill="none" stroke="black" cx="256.19" cy="-279" rx="66.89" ry="18"/>
<text text-anchor="middle" x="256.19" y="-275.3" font-family="Times,serif" font-size="14.00">supported&#45;4</text>
</g>
<!-- supported&#45;4&#45;&gt;suggestion&#45;2 -->
<g id="edge2" class="edge">
<title>supported&#45;4&#45;&gt;suggestion&#45;2</title>
<path fill="none" stroke="black" d="M205.19,-267.25C183.56,-261.62 158.48,-253.64 137.19,-243 122.88,-235.85 108.47,-225.58 96.7,-216.21"/>
<polygon fill="black" stroke="black" points="98.59,-213.23 88.64,-209.6 94.15,-218.65 98.59,-213.23"/>
<text text-anchor="middle" x="175.19" y="-231.8" font-family="Times,serif" font-size="14.00">nsubj:pass</text>
</g>
<!-- was&#45;3 -->
<g id="node4" class="node">
<title>was&#45;3</title>
<ellipse fill="none" stroke="black" cx="203.19" cy="-192" rx="37.89" ry="18"/>
<text text-anchor="middle" x="203.19" y="-188.3" font-family="Times,serif" font-size="14.00">was&#45;3</text>
</g>
<!-- supported&#45;4&#45;&gt;was&#45;3 -->
<g id="edge3" class="edge">
<title>supported&#45;4&#45;&gt;was&#45;3</title>
<path fill="none" stroke="black" d="M238.98,-261.52C233.79,-255.97 228.36,-249.52 224.19,-243 219.56,-235.75 215.55,-227.3 212.32,-219.44"/>
<polygon fill="black" stroke="black" points="215.52,-217.99 208.65,-209.92 208.98,-220.51 215.52,-217.99"/>
<text text-anchor="middle" x="255.69" y="-231.8" font-family="Times,serif" font-size="14.00">aux:pass</text>
</g>
<!-- companies&#45;8 -->
<g id="node6" class="node">
<title>companies&#45;8</title>
<ellipse fill="none" stroke="black" cx="328.19" cy="-192" rx="68.79" ry="18"/>
<text text-anchor="middle" x="328.19" y="-188.3" font-family="Times,serif" font-size="14.00">companies&#45;8</text>
</g>
<!-- supported&#45;4&#45;&gt;companies&#45;8 -->
<g id="edge8" class="edge">
<title>supported&#45;4&#45;&gt;companies&#45;8</title>
<path fill="none" stroke="black" d="M271.15,-261.38C276.28,-255.6 282.03,-249.05 287.19,-243 294.18,-234.8 301.7,-225.72 308.36,-217.57"/>
<polygon fill="black" stroke="black" points="311.09,-219.76 314.68,-209.8 305.66,-215.34 311.09,-219.76"/>
<text text-anchor="middle" x="322.19" y="-231.8" font-family="Times,serif" font-size="14.00">obl:by</text>
</g>
<!-- groups&#45;11 -->
<g id="node10" class="node">
<title>groups&#45;11</title>
<ellipse fill="none" stroke="black" cx="473.19" cy="-105" rx="57.69" ry="18"/>
<text text-anchor="middle" x="473.19" y="-101.3" font-family="Times,serif" font-size="14.00">groups&#45;11</text>
</g>
<!-- supported&#45;4&#45;&gt;groups&#45;11 -->
<g id="edge11" class="edge">
<title>supported&#45;4&#45;&gt;groups&#45;11</title>
<path fill="none" stroke="black" d="M298.14,-264.88C329.88,-253.62 373.45,-235.2 406.19,-210 432.84,-189.49 442.35,-185.11 459.19,-156 463.27,-148.95 466.22,-140.64 468.32,-132.85"/>
<polygon fill="black" stroke="black" points="471.74,-133.58 470.62,-123.04 464.93,-131.98 471.74,-133.58"/>
<text text-anchor="middle" x="470.19" y="-188.3" font-family="Times,serif" font-size="14.00">obl:by</text>
</g>
<!-- ROOT&#45;0 -->
<g id="node5" class="node">
<title>ROOT&#45;0</title>
<ellipse fill="none" stroke="black" cx="256.19" cy="-366" rx="46.29" ry="18"/>
<text text-anchor="middle" x="256.19" y="-362.3" font-family="Times,serif" font-size="14.00">ROOT&#45;0</text>
</g>
<!-- ROOT&#45;0&#45;&gt;supported&#45;4 -->
<g id="edge4" class="edge">
<title>ROOT&#45;0&#45;&gt;supported&#45;4</title>
<path fill="none" stroke="black" d="M256.19,-347.8C256.19,-336.16 256.19,-320.55 256.19,-307.24"/>
<polygon fill="black" stroke="black" points="259.69,-307.18 256.19,-297.18 252.69,-307.18 259.69,-307.18"/>
<text text-anchor="middle" x="271.19" y="-318.8" font-family="Times,serif" font-size="14.00">root</text>
</g>
<!-- both&#45;5 -->
<g id="node7" class="node">
<title>both&#45;5</title>
<ellipse fill="none" stroke="black" cx="152.19" cy="-105" rx="40.09" ry="18"/>
<text text-anchor="middle" x="152.19" y="-101.3" font-family="Times,serif" font-size="14.00">both&#45;5</text>
</g>
<!-- companies&#45;8&#45;&gt;both&#45;5 -->
<g id="edge5" class="edge">
<title>companies&#45;8&#45;&gt;both&#45;5</title>
<path fill="none" stroke="black" d="M293.77,-176.28C279.85,-170.18 263.67,-162.93 249.19,-156 228,-145.85 204.57,-133.8 186.05,-124.07"/>
<polygon fill="black" stroke="black" points="187.59,-120.93 177.11,-119.36 184.33,-127.12 187.59,-120.93"/>
<text text-anchor="middle" x="262.69" y="-144.8" font-family="Times,serif" font-size="14.00">dep</text>
</g>
<!-- by&#45;6 -->
<g id="node8" class="node">
<title>by&#45;6</title>
<ellipse fill="none" stroke="black" cx="241.19" cy="-105" rx="30.59" ry="18"/>
<text text-anchor="middle" x="241.19" y="-101.3" font-family="Times,serif" font-size="14.00">by&#45;6</text>
</g>
<!-- companies&#45;8&#45;&gt;by&#45;6 -->
<g id="edge6" class="edge">
<title>companies&#45;8&#45;&gt;by&#45;6</title>
<path fill="none" stroke="black" d="M311.01,-174.21C297.43,-160.94 278.37,-142.32 263.6,-127.89"/>
<polygon fill="black" stroke="black" points="265.91,-125.26 256.31,-120.77 261.02,-130.26 265.91,-125.26"/>
<text text-anchor="middle" x="306.19" y="-144.8" font-family="Times,serif" font-size="14.00">case</text>
</g>
<!-- biotech&#45;7 -->
<g id="node9" class="node">
<title>biotech&#45;7</title>
<ellipse fill="none" stroke="black" cx="343.19" cy="-105" rx="53.89" ry="18"/>
<text text-anchor="middle" x="343.19" y="-101.3" font-family="Times,serif" font-size="14.00">biotech&#45;7</text>
</g>
<!-- companies&#45;8&#45;&gt;biotech&#45;7 -->
<g id="edge7" class="edge">
<title>companies&#45;8&#45;&gt;biotech&#45;7</title>
<path fill="none" stroke="black" d="M330.23,-173.82C331.47,-164.14 333.2,-151.86 335.19,-141 335.68,-138.33 336.24,-135.56 336.82,-132.8"/>
<polygon fill="black" stroke="black" points="340.24,-133.55 338.99,-123.03 333.41,-132.03 340.24,-133.55"/>
<text text-anchor="middle" x="355.19" y="-144.8" font-family="Times,serif" font-size="14.00">amod</text>
</g>
<!-- companies&#45;8&#45;&gt;groups&#45;11 -->
<g id="edge12" class="edge">
<title>companies&#45;8&#45;&gt;groups&#45;11</title>
<path fill="none" stroke="black" d="M349.96,-174.79C366.74,-162.41 388.65,-146.57 398.19,-141 408.46,-135 419.93,-129.23 430.75,-124.15"/>
<polygon fill="black" stroke="black" points="432.41,-127.24 440.04,-119.89 429.49,-120.88 432.41,-127.24"/>
<text text-anchor="middle" x="428.69" y="-144.8" font-family="Times,serif" font-size="14.00">conj:and</text>
</g>
<!-- and&#45;9 -->
<g id="node11" class="node">
<title>and&#45;9</title>
<ellipse fill="none" stroke="black" cx="399.19" cy="-18" rx="36.29" ry="18"/>
<text text-anchor="middle" x="399.19" y="-14.3" font-family="Times,serif" font-size="14.00">and&#45;9</text>
</g>
<!-- groups&#45;11&#45;&gt;and&#45;9 -->
<g id="edge9" class="edge">
<title>groups&#45;11&#45;&gt;and&#45;9</title>
<path fill="none" stroke="black" d="M458.57,-87.21C447.52,-74.51 432.19,-56.9 419.88,-42.76"/>
<polygon fill="black" stroke="black" points="422.24,-40.14 413.03,-34.9 416.96,-44.74 422.24,-40.14"/>
<text text-anchor="middle" x="449.19" y="-57.8" font-family="Times,serif" font-size="14.00">cc</text>
</g>
<!-- environmental&#45;10 -->
<g id="node12" class="node">
<title>environmental&#45;10</title>
<ellipse fill="none" stroke="black" cx="546.19" cy="-18" rx="92.88" ry="18"/>
<text text-anchor="middle" x="546.19" y="-14.3" font-family="Times,serif" font-size="14.00">environmental&#45;10</text>
</g>
<!-- groups&#45;11&#45;&gt;environmental&#45;10 -->
<g id="edge10" class="edge">
<title>groups&#45;11&#45;&gt;environmental&#45;10</title>
<path fill="none" stroke="black" d="M487.62,-87.21C498.24,-74.83 512.87,-57.8 524.85,-43.85"/>
<polygon fill="black" stroke="black" points="527.69,-45.92 531.55,-36.05 522.38,-41.36 527.69,-45.92"/>
<text text-anchor="middle" x="533.19" y="-57.8" font-family="Times,serif" font-size="14.00">amod</text>
</g>
</g>
</svg>
