<?xml version="1.0" encoding="UTF-8" standalone="no"?>
<!DOCTYPE svg PUBLIC "-//W3C//DTD SVG 1.1//EN"
 "http://www.w3.org/Graphics/SVG/1.1/DTD/svg11.dtd">
<!-- Generated by graphviz version 2.43.0 (0)
 -->
<!-- Title: %3 Pages: 1 -->
<svg width="465pt" height="566pt"
 viewBox="0.00 0.00 464.90 566.00" xmlns="http://www.w3.org/2000/svg" xmlns:xlink="http://www.w3.org/1999/xlink">
<g id="graph0" class="graph" transform="scale(1 1) rotate(0) translate(4 562)">
<title>%3</title>
<polygon fill="white" stroke="transparent" points="-4,4 -4,-562 460.9,-562 460.9,4 -4,4"/>
<!-- was&#45;3 -->
<g id="node1" class="node">
<title>was&#45;3</title>
<ellipse fill="none" stroke="black" cx="147.9" cy="-453" rx="37.89" ry="18"/>
<text text-anchor="middle" x="147.9" y="-449.3" font-family="Times,serif" font-size="14.00">was&#45;3</text>
</g>
<!-- Once&#45;1 -->
<g id="node2" class="node">
<title>Once&#45;1</title>
<ellipse fill="none" stroke="black" cx="42.9" cy="-366" rx="42.79" ry="18"/>
<text text-anchor="middle" x="42.9" y="-362.3" font-family="Times,serif" font-size="14.00">Once&#45;1</text>
</g>
<!-- was&#45;3&#45;&gt;Once&#45;1 -->
<g id="edge1" class="edge">
<title>was&#45;3&#45;&gt;Once&#45;1</title>
<path fill="none" stroke="black" d="M122.06,-439.61C110.72,-433.57 97.58,-425.73 86.9,-417 77.8,-409.57 69,-400.17 61.69,-391.53"/>
<polygon fill="black" stroke="black" points="64.22,-389.09 55.18,-383.56 58.8,-393.52 64.22,-389.09"/>
<text text-anchor="middle" x="115.4" y="-405.8" font-family="Times,serif" font-size="14.00">advmod</text>
</g>
<!-- there&#45;2 -->
<g id="node3" class="node">
<title>there&#45;2</title>
<ellipse fill="none" stroke="black" cx="147.9" cy="-366" rx="44.39" ry="18"/>
<text text-anchor="middle" x="147.9" y="-362.3" font-family="Times,serif" font-size="14.00">there&#45;2</text>
</g>
<!-- was&#45;3&#45;&gt;there&#45;2 -->
<g id="edge2" class="edge">
<title>was&#45;3&#45;&gt;there&#45;2</title>
<path fill="none" stroke="black" d="M147.9,-434.8C147.9,-423.16 147.9,-407.55 147.9,-394.24"/>
<polygon fill="black" stroke="black" points="151.4,-394.18 147.9,-384.18 144.4,-394.18 151.4,-394.18"/>
<text text-anchor="middle" x="163.4" y="-405.8" font-family="Times,serif" font-size="14.00">expl</text>
</g>
<!-- woman&#45;5 -->
<g id="node5" class="node">
<title>woman&#45;5</title>
<ellipse fill="none" stroke="black" cx="262.9" cy="-366" rx="52.79" ry="18"/>
<text text-anchor="middle" x="262.9" y="-362.3" font-family="Times,serif" font-size="14.00">woman&#45;5</text>
</g>
<!-- was&#45;3&#45;&gt;woman&#45;5 -->
<g id="edge5" class="edge">
<title>was&#45;3&#45;&gt;woman&#45;5</title>
<path fill="none" stroke="black" d="M167.4,-437.58C185.54,-424.18 212.8,-404.03 233.56,-388.68"/>
<polygon fill="black" stroke="black" points="235.77,-391.4 241.73,-382.64 231.61,-385.77 235.77,-391.4"/>
<text text-anchor="middle" x="232.9" y="-405.8" font-family="Times,serif" font-size="14.00">nsubj</text>
</g>
<!-- ROOT&#45;0 -->
<g id="node4" class="node">
<title>ROOT&#45;0</title>
<ellipse fill="none" stroke="black" cx="147.9" cy="-540" rx="46.29" ry="18"/>
<text text-anchor="middle" x="147.9" y="-536.3" font-family="Times,serif" font-size="14.00">ROOT&#45;0</text>
</g>
<!-- ROOT&#45;0&#45;&gt;was&#45;3 -->
<g id="edge3" class="edge">
<title>ROOT&#45;0&#45;&gt;was&#45;3</title>
<path fill="none" stroke="black" d="M147.9,-521.8C147.9,-510.16 147.9,-494.55 147.9,-481.24"/>
<polygon fill="black" stroke="black" points="151.4,-481.18 147.9,-471.18 144.4,-481.18 151.4,-481.18"/>
<text text-anchor="middle" x="162.9" y="-492.8" font-family="Times,serif" font-size="14.00">root</text>
</g>
<!-- a&#45;4 -->
<g id="node6" class="node">
<title>a&#45;4</title>
<ellipse fill="none" stroke="black" cx="168.9" cy="-279" rx="27" ry="18"/>
<text text-anchor="middle" x="168.9" y="-275.3" font-family="Times,serif" font-size="14.00">a&#45;4</text>
</g>
<!-- woman&#45;5&#45;&gt;a&#45;4 -->
<g id="edge4" class="edge">
<title>woman&#45;5&#45;&gt;a&#45;4</title>
<path fill="none" stroke="black" d="M226.01,-353C213.63,-347.54 200.54,-340.01 190.9,-330 184.63,-323.49 179.98,-314.9 176.61,-306.68"/>
<polygon fill="black" stroke="black" points="179.81,-305.22 173.12,-297.01 173.22,-307.6 179.81,-305.22"/>
<text text-anchor="middle" x="202.9" y="-318.8" font-family="Times,serif" font-size="14.00">det</text>
</g>
<!-- longed&#45;7 -->
<g id="node7" class="node">
<title>longed&#45;7</title>
<ellipse fill="none" stroke="black" cx="264.9" cy="-279" rx="50.89" ry="18"/>
<text text-anchor="middle" x="264.9" y="-275.3" font-family="Times,serif" font-size="14.00">longed&#45;7</text>
</g>
<!-- woman&#45;5&#45;&gt;longed&#45;7 -->
<g id="edge8" class="edge">
<title>woman&#45;5&#45;&gt;longed&#45;7</title>
<path fill="none" stroke="black" d="M236.86,-350.09C224.38,-340.86 213.41,-328.27 219.9,-315 222.4,-309.89 226.04,-305.31 230.2,-301.28"/>
<polygon fill="black" stroke="black" points="232.7,-303.74 238.08,-294.62 228.18,-298.4 232.7,-303.74"/>
<text text-anchor="middle" x="248.4" y="-318.8" font-family="Times,serif" font-size="14.00">acl:relcl</text>
</g>
<!-- who&#45;6 -->
<g id="node8" class="node">
<title>who&#45;6</title>
<ellipse fill="none" stroke="black" cx="371.9" cy="-279" rx="38.19" ry="18"/>
<text text-anchor="middle" x="371.9" y="-275.3" font-family="Times,serif" font-size="14.00">who&#45;6</text>
</g>
<!-- woman&#45;5&#45;&gt;who&#45;6 -->
<g id="edge7" class="edge">
<title>woman&#45;5&#45;&gt;who&#45;6</title>
<path fill="none" stroke="black" d="M292.66,-350.98C303.6,-345.2 315.77,-337.97 325.9,-330 335.55,-322.4 344.96,-312.71 352.72,-303.89"/>
<polygon fill="black" stroke="black" points="355.53,-306 359.36,-296.12 350.2,-301.45 355.53,-306"/>
<text text-anchor="middle" x="352.4" y="-318.8" font-family="Times,serif" font-size="14.00">ref</text>
</g>
<!-- longed&#45;7&#45;&gt;woman&#45;5 -->
<g id="edge6" class="edge">
<title>longed&#45;7&#45;&gt;woman&#45;5</title>
<path fill="none" stroke="black" d="M275.17,-296.95C279.76,-306.55 283.6,-318.84 280.9,-330 280.16,-333.02 279.12,-336.08 277.91,-339.06"/>
<polygon fill="black" stroke="black" points="274.7,-337.66 273.58,-348.19 281.03,-340.65 274.7,-337.66"/>
<text text-anchor="middle" x="301.9" y="-318.8" font-family="Times,serif" font-size="14.00">nsubj</text>
</g>
<!-- child&#45;10 -->
<g id="node9" class="node">
<title>child&#45;10</title>
<ellipse fill="none" stroke="black" cx="264.9" cy="-192" rx="48.19" ry="18"/>
<text text-anchor="middle" x="264.9" y="-188.3" font-family="Times,serif" font-size="14.00">child&#45;10</text>
</g>
<!-- longed&#45;7&#45;&gt;child&#45;10 -->
<g id="edge11" class="edge">
<title>longed&#45;7&#45;&gt;child&#45;10</title>
<path fill="none" stroke="black" d="M264.9,-260.8C264.9,-249.16 264.9,-233.55 264.9,-220.24"/>
<polygon fill="black" stroke="black" points="268.4,-220.18 264.9,-210.18 261.4,-220.18 268.4,-220.18"/>
<text text-anchor="middle" x="288.4" y="-231.8" font-family="Times,serif" font-size="14.00">obl:for</text>
</g>
<!-- for&#45;8 -->
<g id="node10" class="node">
<title>for&#45;8</title>
<ellipse fill="none" stroke="black" cx="187.9" cy="-105" rx="32.49" ry="18"/>
<text text-anchor="middle" x="187.9" y="-101.3" font-family="Times,serif" font-size="14.00">for&#45;8</text>
</g>
<!-- child&#45;10&#45;&gt;for&#45;8 -->
<g id="edge9" class="edge">
<title>child&#45;10&#45;&gt;for&#45;8</title>
<path fill="none" stroke="black" d="M247.65,-175C241.58,-169.16 234.79,-162.42 228.9,-156 221.38,-147.82 213.54,-138.49 206.76,-130.12"/>
<polygon fill="black" stroke="black" points="209.36,-127.77 200.38,-122.15 203.9,-132.14 209.36,-127.77"/>
<text text-anchor="middle" x="244.9" y="-144.8" font-family="Times,serif" font-size="14.00">case</text>
</g>
<!-- a&#45;9 -->
<g id="node11" class="node">
<title>a&#45;9</title>
<ellipse fill="none" stroke="black" cx="264.9" cy="-105" rx="27" ry="18"/>
<text text-anchor="middle" x="264.9" y="-101.3" font-family="Times,serif" font-size="14.00">a&#45;9</text>
</g>
<!-- child&#45;10&#45;&gt;a&#45;9 -->
<g id="edge10" class="edge">
<title>child&#45;10&#45;&gt;a&#45;9</title>
<path fill="none" stroke="black" d="M264.9,-173.8C264.9,-162.16 264.9,-146.55 264.9,-133.24"/>
<polygon fill="black" stroke="black" points="268.4,-133.18 264.9,-123.18 261.4,-133.18 268.4,-133.18"/>
<text text-anchor="middle" x="276.9" y="-144.8" font-family="Times,serif" font-size="14.00">det</text>
</g>
<!-- own&#45;13 -->
<g id="node12" class="node">
<title>own&#45;13</title>
<ellipse fill="none" stroke="black" cx="353.9" cy="-105" rx="44.39" ry="18"/>
<text text-anchor="middle" x="353.9" y="-101.3" font-family="Times,serif" font-size="14.00">own&#45;13</text>
</g>
<!-- child&#45;10&#45;&gt;own&#45;13 -->
<g id="edge14" class="edge">
<title>child&#45;10&#45;&gt;own&#45;13</title>
<path fill="none" stroke="black" d="M281.64,-175.01C295.19,-162.07 314.45,-143.67 329.69,-129.12"/>
<polygon fill="black" stroke="black" points="332.42,-131.35 337.23,-121.92 327.58,-126.29 332.42,-131.35"/>
<text text-anchor="middle" x="343.9" y="-144.8" font-family="Times,serif" font-size="14.00">nmod:of</text>
</g>
<!-- of&#45;11 -->
<g id="node13" class="node">
<title>of&#45;11</title>
<ellipse fill="none" stroke="black" cx="306.9" cy="-18" rx="34.39" ry="18"/>
<text text-anchor="middle" x="306.9" y="-14.3" font-family="Times,serif" font-size="14.00">of&#45;11</text>
</g>
<!-- own&#45;13&#45;&gt;of&#45;11 -->
<g id="edge12" class="edge">
<title>own&#45;13&#45;&gt;of&#45;11</title>
<path fill="none" stroke="black" d="M344.61,-87.21C337.87,-75.02 328.64,-58.32 320.99,-44.49"/>
<polygon fill="black" stroke="black" points="323.9,-42.53 316,-35.47 317.78,-45.91 323.9,-42.53"/>
<text text-anchor="middle" x="349.9" y="-57.8" font-family="Times,serif" font-size="14.00">case</text>
</g>
<!-- her&#45;12 -->
<g id="node14" class="node">
<title>her&#45;12</title>
<ellipse fill="none" stroke="black" cx="399.9" cy="-18" rx="40.89" ry="18"/>
<text text-anchor="middle" x="399.9" y="-14.3" font-family="Times,serif" font-size="14.00">her&#45;12</text>
</g>
<!-- own&#45;13&#45;&gt;her&#45;12 -->
<g id="edge13" class="edge">
<title>own&#45;13&#45;&gt;her&#45;12</title>
<path fill="none" stroke="black" d="M362.98,-87.21C369.54,-75.1 378.5,-58.53 385.96,-44.76"/>
<polygon fill="black" stroke="black" points="389.15,-46.22 390.83,-35.76 382.99,-42.89 389.15,-46.22"/>
<text text-anchor="middle" x="418.4" y="-57.8" font-family="Times,serif" font-size="14.00">nmod:poss</text>
</g>
</g>
</svg>
