<?xml version="1.0" encoding="UTF-8" standalone="no"?>
<!DOCTYPE svg PUBLIC "-//W3C//DTD SVG 1.1//EN"
 "http://www.w3.org/Graphics/SVG/1.1/DTD/svg11.dtd">
<!-- Generated by graphviz version 2.43.0 (0)
 -->
<!-- Title: %3 Pages: 1 -->
<svg width="840pt" height="653pt"
 viewBox="0.00 0.00 840.44 653.00" xmlns="http://www.w3.org/2000/svg" xmlns:xlink="http://www.w3.org/1999/xlink">
<g id="graph0" class="graph" transform="scale(1 1) rotate(0) translate(4 649)">
<title>%3</title>
<polygon fill="white" stroke="transparent" points="-4,4 -4,-649 836.44,-649 836.44,4 -4,4"/>
<!-- take&#45;4 -->
<g id="node1" class="node">
<title>take&#45;4</title>
<ellipse fill="none" stroke="black" cx="336.6" cy="-627" rx="39.79" ry="18"/>
<text text-anchor="middle" x="336.6" y="-623.3" font-family="Times,serif" font-size="14.00">take&#45;4</text>
</g>
<!-- All&#45;1 -->
<g id="node2" class="node">
<title>All&#45;1</title>
<ellipse fill="none" stroke="black" cx="76.6" cy="-540" rx="31.7" ry="18"/>
<text text-anchor="middle" x="76.6" y="-536.3" font-family="Times,serif" font-size="14.00">All&#45;1</text>
</g>
<!-- take&#45;4&#45;&gt;All&#45;1 -->
<g id="edge1" class="edge">
<title>take&#45;4&#45;&gt;All&#45;1</title>
<path fill="none" stroke="black" d="M302.98,-617.22C277.92,-610.51 242.94,-600.77 212.6,-591 171.65,-577.81 161.94,-572.94 121.6,-558 118.37,-556.8 115.01,-555.55 111.65,-554.29"/>
<polygon fill="black" stroke="black" points="112.87,-551.01 102.28,-550.77 110.4,-557.56 112.87,-551.01"/>
<text text-anchor="middle" x="232.6" y="-579.8" font-family="Times,serif" font-size="14.00">nsubj</text>
</g>
<!-- problems&#45;9 -->
<g id="node8" class="node">
<title>problems&#45;9</title>
<ellipse fill="none" stroke="black" cx="193.6" cy="-540" rx="63.09" ry="18"/>
<text text-anchor="middle" x="193.6" y="-536.3" font-family="Times,serif" font-size="14.00">problems&#45;9</text>
</g>
<!-- take&#45;4&#45;&gt;problems&#45;9 -->
<g id="edge8" class="edge">
<title>take&#45;4&#45;&gt;problems&#45;9</title>
<path fill="none" stroke="black" d="M313.3,-612.15C290.37,-598.52 255.04,-577.52 228.7,-561.86"/>
<polygon fill="black" stroke="black" points="230.18,-558.67 219.79,-556.57 226.6,-564.69 230.18,-558.67"/>
<text text-anchor="middle" x="285.6" y="-579.8" font-family="Times,serif" font-size="14.00">obj</text>
</g>
<!-- account&#45;11 -->
<g id="node10" class="node">
<title>account&#45;11</title>
<ellipse fill="none" stroke="black" cx="336.6" cy="-540" rx="61.99" ry="18"/>
<text text-anchor="middle" x="336.6" y="-536.3" font-family="Times,serif" font-size="14.00">account&#45;11</text>
</g>
<!-- take&#45;4&#45;&gt;account&#45;11 -->
<g id="edge10" class="edge">
<title>take&#45;4&#45;&gt;account&#45;11</title>
<path fill="none" stroke="black" d="M336.6,-608.8C336.6,-597.16 336.6,-581.55 336.6,-568.24"/>
<polygon fill="black" stroke="black" points="340.1,-568.18 336.6,-558.18 333.1,-568.18 340.1,-568.18"/>
<text text-anchor="middle" x="364.1" y="-579.8" font-family="Times,serif" font-size="14.00">obl:into</text>
</g>
<!-- attempt&#45;13 -->
<g id="node12" class="node">
<title>attempt&#45;13</title>
<ellipse fill="none" stroke="black" cx="430.6" cy="-453" rx="62.29" ry="18"/>
<text text-anchor="middle" x="430.6" y="-449.3" font-family="Times,serif" font-size="14.00">attempt&#45;13</text>
</g>
<!-- take&#45;4&#45;&gt;attempt&#45;13 -->
<g id="edge12" class="edge">
<title>take&#45;4&#45;&gt;attempt&#45;13</title>
<path fill="none" stroke="black" d="M365.03,-614.2C375.82,-608.54 387.47,-600.81 395.6,-591 421.55,-559.69 428.57,-511.53 430.29,-481.45"/>
<polygon fill="black" stroke="black" points="433.8,-481.38 430.71,-471.24 426.8,-481.09 433.8,-481.38"/>
<text text-anchor="middle" x="453.1" y="-536.3" font-family="Times,serif" font-size="14.00">obl:into</text>
</g>
<!-- create&#45;15 -->
<g id="node14" class="node">
<title>create&#45;15</title>
<ellipse fill="none" stroke="black" cx="562.6" cy="-540" rx="54.69" ry="18"/>
<text text-anchor="middle" x="562.6" y="-536.3" font-family="Times,serif" font-size="14.00">create&#45;15</text>
</g>
<!-- take&#45;4&#45;&gt;create&#45;15 -->
<g id="edge15" class="edge">
<title>take&#45;4&#45;&gt;create&#45;15</title>
<path fill="none" stroke="black" d="M369.76,-616.68C392.22,-610.12 422.46,-600.78 448.6,-591 473.81,-581.56 501.48,-569.47 523.24,-559.54"/>
<polygon fill="black" stroke="black" points="524.86,-562.65 532.49,-555.29 521.94,-556.29 524.86,-562.65"/>
<text text-anchor="middle" x="502.6" y="-579.8" font-family="Times,serif" font-size="14.00">advcl</text>
</g>
<!-- them&#45;3 -->
<g id="node3" class="node">
<title>them&#45;3</title>
<ellipse fill="none" stroke="black" cx="52.6" cy="-453" rx="43.59" ry="18"/>
<text text-anchor="middle" x="52.6" y="-449.3" font-family="Times,serif" font-size="14.00">them&#45;3</text>
</g>
<!-- All&#45;1&#45;&gt;them&#45;3 -->
<g id="edge3" class="edge">
<title>All&#45;1&#45;&gt;them&#45;3</title>
<path fill="none" stroke="black" d="M71.74,-521.8C68.42,-510.05 63.96,-494.24 60.18,-480.84"/>
<polygon fill="black" stroke="black" points="63.53,-479.85 57.45,-471.18 56.8,-481.75 63.53,-479.85"/>
<text text-anchor="middle" x="95.6" y="-492.8" font-family="Times,serif" font-size="14.00">nmod:of</text>
</g>
<!-- of&#45;2 -->
<g id="node4" class="node">
<title>of&#45;2</title>
<ellipse fill="none" stroke="black" cx="28.6" cy="-366" rx="28.7" ry="18"/>
<text text-anchor="middle" x="28.6" y="-362.3" font-family="Times,serif" font-size="14.00">of&#45;2</text>
</g>
<!-- them&#45;3&#45;&gt;of&#45;2 -->
<g id="edge2" class="edge">
<title>them&#45;3&#45;&gt;of&#45;2</title>
<path fill="none" stroke="black" d="M47.74,-434.8C44.4,-422.97 39.9,-407.03 36.1,-393.58"/>
<polygon fill="black" stroke="black" points="39.45,-392.56 33.37,-383.89 32.71,-394.46 39.45,-392.56"/>
<text text-anchor="middle" x="58.6" y="-405.8" font-family="Times,serif" font-size="14.00">case</text>
</g>
<!-- actors&#45;7 -->
<g id="node5" class="node">
<title>actors&#45;7</title>
<ellipse fill="none" stroke="black" cx="193.6" cy="-453" rx="48.19" ry="18"/>
<text text-anchor="middle" x="193.6" y="-449.3" font-family="Times,serif" font-size="14.00">actors&#45;7</text>
</g>
<!-- the&#45;5 -->
<g id="node6" class="node">
<title>the&#45;5</title>
<ellipse fill="none" stroke="black" cx="109.6" cy="-366" rx="34.39" ry="18"/>
<text text-anchor="middle" x="109.6" y="-362.3" font-family="Times,serif" font-size="14.00">the&#45;5</text>
</g>
<!-- actors&#45;7&#45;&gt;the&#45;5 -->
<g id="edge4" class="edge">
<title>actors&#45;7&#45;&gt;the&#45;5</title>
<path fill="none" stroke="black" d="M177.4,-435.61C164.49,-422.55 146.27,-404.11 131.97,-389.64"/>
<polygon fill="black" stroke="black" points="134.41,-387.13 124.89,-382.48 129.43,-392.05 134.41,-387.13"/>
<text text-anchor="middle" x="169.6" y="-405.8" font-family="Times,serif" font-size="14.00">det</text>
</g>
<!-- working&#45;6 -->
<g id="node7" class="node">
<title>working&#45;6</title>
<ellipse fill="none" stroke="black" cx="219.6" cy="-366" rx="57.39" ry="18"/>
<text text-anchor="middle" x="219.6" y="-362.3" font-family="Times,serif" font-size="14.00">working&#45;6</text>
</g>
<!-- actors&#45;7&#45;&gt;working&#45;6 -->
<g id="edge5" class="edge">
<title>actors&#45;7&#45;&gt;working&#45;6</title>
<path fill="none" stroke="black" d="M198.86,-434.8C202.45,-423.05 207.29,-407.24 211.39,-393.84"/>
<polygon fill="black" stroke="black" points="214.77,-394.76 214.34,-384.18 208.07,-392.71 214.77,-394.76"/>
<text text-anchor="middle" x="228.6" y="-405.8" font-family="Times,serif" font-size="14.00">amod</text>
</g>
<!-- &#39;&#45;8 -->
<g id="node9" class="node">
<title>&#39;&#45;8</title>
<ellipse fill="none" stroke="black" cx="321.6" cy="-366" rx="27" ry="18"/>
<text text-anchor="middle" x="321.6" y="-362.3" font-family="Times,serif" font-size="14.00">&#39;&#45;8</text>
</g>
<!-- actors&#45;7&#45;&gt;&#39;&#45;8 -->
<g id="edge7" class="edge">
<title>actors&#45;7&#45;&gt;&#39;&#45;8</title>
<path fill="none" stroke="black" d="M218.89,-437.68C229.44,-431.53 241.75,-424.13 252.6,-417 267.26,-407.36 283.15,-395.92 295.98,-386.42"/>
<polygon fill="black" stroke="black" points="298.4,-388.98 304.33,-380.19 294.22,-383.37 298.4,-388.98"/>
<text text-anchor="middle" x="290.6" y="-405.8" font-family="Times,serif" font-size="14.00">case</text>
</g>
<!-- problems&#45;9&#45;&gt;actors&#45;7 -->
<g id="edge6" class="edge">
<title>problems&#45;9&#45;&gt;actors&#45;7</title>
<path fill="none" stroke="black" d="M193.6,-521.8C193.6,-510.16 193.6,-494.55 193.6,-481.24"/>
<polygon fill="black" stroke="black" points="197.1,-481.18 193.6,-471.18 190.1,-481.18 197.1,-481.18"/>
<text text-anchor="middle" x="232.1" y="-492.8" font-family="Times,serif" font-size="14.00">nmod:poss</text>
</g>
<!-- into&#45;10 -->
<g id="node11" class="node">
<title>into&#45;10</title>
<ellipse fill="none" stroke="black" cx="303.6" cy="-453" rx="43.59" ry="18"/>
<text text-anchor="middle" x="303.6" y="-449.3" font-family="Times,serif" font-size="14.00">into&#45;10</text>
</g>
<!-- account&#45;11&#45;&gt;into&#45;10 -->
<g id="edge9" class="edge">
<title>account&#45;11&#45;&gt;into&#45;10</title>
<path fill="none" stroke="black" d="M317.15,-522.62C312.12,-517.25 307.35,-510.88 304.6,-504 301.79,-496.99 300.78,-488.96 300.66,-481.43"/>
<polygon fill="black" stroke="black" points="304.17,-481.37 301,-471.26 297.17,-481.14 304.17,-481.37"/>
<text text-anchor="middle" x="320.6" y="-492.8" font-family="Times,serif" font-size="14.00">case</text>
</g>
<!-- account&#45;11&#45;&gt;attempt&#45;13 -->
<g id="edge13" class="edge">
<title>account&#45;11&#45;&gt;attempt&#45;13</title>
<path fill="none" stroke="black" d="M341.2,-522.01C344.78,-511.44 350.67,-498.17 359.6,-489 366.29,-482.13 374.6,-476.41 383.16,-471.71"/>
<polygon fill="black" stroke="black" points="384.76,-474.82 392.11,-467.19 381.61,-468.57 384.76,-474.82"/>
<text text-anchor="middle" x="390.1" y="-492.8" font-family="Times,serif" font-size="14.00">conj:and</text>
</g>
<!-- and&#45;12 -->
<g id="node13" class="node">
<title>and&#45;12</title>
<ellipse fill="none" stroke="black" cx="430.6" cy="-366" rx="42.49" ry="18"/>
<text text-anchor="middle" x="430.6" y="-362.3" font-family="Times,serif" font-size="14.00">and&#45;12</text>
</g>
<!-- attempt&#45;13&#45;&gt;and&#45;12 -->
<g id="edge11" class="edge">
<title>attempt&#45;13&#45;&gt;and&#45;12</title>
<path fill="none" stroke="black" d="M430.6,-434.8C430.6,-423.16 430.6,-407.55 430.6,-394.24"/>
<polygon fill="black" stroke="black" points="434.1,-394.18 430.6,-384.18 427.1,-394.18 434.1,-394.18"/>
<text text-anchor="middle" x="438.6" y="-405.8" font-family="Times,serif" font-size="14.00">cc</text>
</g>
<!-- to&#45;14 -->
<g id="node15" class="node">
<title>to&#45;14</title>
<ellipse fill="none" stroke="black" cx="555.6" cy="-453" rx="34.39" ry="18"/>
<text text-anchor="middle" x="555.6" y="-449.3" font-family="Times,serif" font-size="14.00">to&#45;14</text>
</g>
<!-- create&#45;15&#45;&gt;to&#45;14 -->
<g id="edge14" class="edge">
<title>create&#45;15&#45;&gt;to&#45;14</title>
<path fill="none" stroke="black" d="M561.18,-521.8C560.22,-510.16 558.94,-494.55 557.84,-481.24"/>
<polygon fill="black" stroke="black" points="561.32,-480.85 557.01,-471.18 554.34,-481.43 561.32,-480.85"/>
<text text-anchor="middle" x="578.1" y="-492.8" font-family="Times,serif" font-size="14.00">mark</text>
</g>
<!-- classes&#45;16 -->
<g id="node16" class="node">
<title>classes&#45;16</title>
<ellipse fill="none" stroke="black" cx="666.6" cy="-453" rx="58.49" ry="18"/>
<text text-anchor="middle" x="666.6" y="-449.3" font-family="Times,serif" font-size="14.00">classes&#45;16</text>
</g>
<!-- create&#45;15&#45;&gt;classes&#45;16 -->
<g id="edge16" class="edge">
<title>create&#45;15&#45;&gt;classes&#45;16</title>
<path fill="none" stroke="black" d="M582.16,-523.01C598.18,-509.92 621.04,-491.23 638.94,-476.6"/>
<polygon fill="black" stroke="black" points="641.24,-479.24 646.77,-470.21 636.81,-473.82 641.24,-479.24"/>
<text text-anchor="middle" x="632.6" y="-492.8" font-family="Times,serif" font-size="14.00">obj</text>
</g>
<!-- make&#45;19 -->
<g id="node17" class="node">
<title>make&#45;19</title>
<ellipse fill="none" stroke="black" cx="597.6" cy="-366" rx="50.09" ry="18"/>
<text text-anchor="middle" x="597.6" y="-362.3" font-family="Times,serif" font-size="14.00">make&#45;19</text>
</g>
<!-- classes&#45;16&#45;&gt;make&#45;19 -->
<g id="edge20" class="edge">
<title>classes&#45;16&#45;&gt;make&#45;19</title>
<path fill="none" stroke="black" d="M618.72,-442.41C605.08,-437.22 591.73,-429.25 583.6,-417 578.92,-409.95 579.55,-401.35 582.23,-393.28"/>
<polygon fill="black" stroke="black" points="585.55,-394.42 586.29,-383.85 579.13,-391.65 585.55,-394.42"/>
<text text-anchor="middle" x="612.1" y="-405.8" font-family="Times,serif" font-size="14.00">acl:relcl</text>
</g>
<!-- which&#45;17 -->
<g id="node18" class="node">
<title>which&#45;17</title>
<ellipse fill="none" stroke="black" cx="729.6" cy="-366" rx="52.79" ry="18"/>
<text text-anchor="middle" x="729.6" y="-362.3" font-family="Times,serif" font-size="14.00">which&#45;17</text>
</g>
<!-- classes&#45;16&#45;&gt;which&#45;17 -->
<g id="edge18" class="edge">
<title>classes&#45;16&#45;&gt;which&#45;17</title>
<path fill="none" stroke="black" d="M688.77,-436.17C695.43,-430.65 702.35,-424.06 707.6,-417 712.83,-409.97 717.15,-401.49 720.54,-393.54"/>
<polygon fill="black" stroke="black" points="723.8,-394.81 724.2,-384.22 717.28,-392.25 723.8,-394.81"/>
<text text-anchor="middle" x="726.1" y="-405.8" font-family="Times,serif" font-size="14.00">ref</text>
</g>
<!-- make&#45;19&#45;&gt;classes&#45;16 -->
<g id="edge17" class="edge">
<title>make&#45;19&#45;&gt;classes&#45;16</title>
<path fill="none" stroke="black" d="M622.6,-381.97C630.38,-387.53 638.51,-394.36 644.6,-402 650.14,-408.96 654.58,-417.54 657.97,-425.61"/>
<polygon fill="black" stroke="black" points="654.75,-426.98 661.6,-435.06 661.29,-424.47 654.75,-426.98"/>
<text text-anchor="middle" x="673.6" y="-405.8" font-family="Times,serif" font-size="14.00">nsubj</text>
</g>
<!-- can&#45;18 -->
<g id="node19" class="node">
<title>can&#45;18</title>
<ellipse fill="none" stroke="black" cx="557.6" cy="-279" rx="41.69" ry="18"/>
<text text-anchor="middle" x="557.6" y="-275.3" font-family="Times,serif" font-size="14.00">can&#45;18</text>
</g>
<!-- make&#45;19&#45;&gt;can&#45;18 -->
<g id="edge19" class="edge">
<title>make&#45;19&#45;&gt;can&#45;18</title>
<path fill="none" stroke="black" d="M589.69,-348.21C584.05,-336.22 576.35,-319.85 569.91,-306.16"/>
<polygon fill="black" stroke="black" points="572.91,-304.32 565.48,-296.76 566.57,-307.3 572.91,-304.32"/>
<text text-anchor="middle" x="593.6" y="-318.8" font-family="Times,serif" font-size="14.00">aux</text>
</g>
<!-- hours&#45;21 -->
<g id="node20" class="node">
<title>hours&#45;21</title>
<ellipse fill="none" stroke="black" cx="669.6" cy="-279" rx="51.99" ry="18"/>
<text text-anchor="middle" x="669.6" y="-275.3" font-family="Times,serif" font-size="14.00">hours&#45;21</text>
</g>
<!-- make&#45;19&#45;&gt;hours&#45;21 -->
<g id="edge22" class="edge">
<title>make&#45;19&#45;&gt;hours&#45;21</title>
<path fill="none" stroke="black" d="M611.48,-348.61C622.07,-336.11 636.83,-318.69 648.82,-304.53"/>
<polygon fill="black" stroke="black" points="651.72,-306.52 655.51,-296.63 646.38,-302 651.72,-306.52"/>
<text text-anchor="middle" x="649.6" y="-318.8" font-family="Times,serif" font-size="14.00">obj</text>
</g>
<!-- free&#45;20 -->
<g id="node21" class="node">
<title>free&#45;20</title>
<ellipse fill="none" stroke="black" cx="531.6" cy="-192" rx="44.39" ry="18"/>
<text text-anchor="middle" x="531.6" y="-188.3" font-family="Times,serif" font-size="14.00">free&#45;20</text>
</g>
<!-- hours&#45;21&#45;&gt;free&#45;20 -->
<g id="edge21" class="edge">
<title>hours&#45;21&#45;&gt;free&#45;20</title>
<path fill="none" stroke="black" d="M645.24,-263C622.64,-249.08 588.83,-228.25 563.97,-212.94"/>
<polygon fill="black" stroke="black" points="565.6,-209.83 555.25,-207.57 561.93,-215.79 565.6,-209.83"/>
<text text-anchor="middle" x="629.6" y="-231.8" font-family="Times,serif" font-size="14.00">amod</text>
</g>
<!-- disciplined&#45;23 -->
<g id="node22" class="node">
<title>disciplined&#45;23</title>
<ellipse fill="none" stroke="black" cx="669.6" cy="-192" rx="75.29" ry="18"/>
<text text-anchor="middle" x="669.6" y="-188.3" font-family="Times,serif" font-size="14.00">disciplined&#45;23</text>
</g>
<!-- hours&#45;21&#45;&gt;disciplined&#45;23 -->
<g id="edge24" class="edge">
<title>hours&#45;21&#45;&gt;disciplined&#45;23</title>
<path fill="none" stroke="black" d="M669.6,-260.8C669.6,-249.16 669.6,-233.55 669.6,-220.24"/>
<polygon fill="black" stroke="black" points="673.1,-220.18 669.6,-210.18 666.1,-220.18 673.1,-220.18"/>
<text text-anchor="middle" x="689.6" y="-231.8" font-family="Times,serif" font-size="14.00">amod</text>
</g>
<!-- profitable&#45;25 -->
<g id="node24" class="node">
<title>profitable&#45;25</title>
<ellipse fill="none" stroke="black" cx="761.6" cy="-105" rx="70.69" ry="18"/>
<text text-anchor="middle" x="761.6" y="-101.3" font-family="Times,serif" font-size="14.00">profitable&#45;25</text>
</g>
<!-- hours&#45;21&#45;&gt;profitable&#45;25 -->
<g id="edge26" class="edge">
<title>hours&#45;21&#45;&gt;profitable&#45;25</title>
<path fill="none" stroke="black" d="M695.94,-263.25C714.83,-251.3 739.38,-232.75 753.6,-210 767.87,-187.17 768.26,-155.78 766.08,-133.47"/>
<polygon fill="black" stroke="black" points="769.53,-132.84 764.86,-123.33 762.58,-133.68 769.53,-132.84"/>
<text text-anchor="middle" x="784.6" y="-188.3" font-family="Times,serif" font-size="14.00">amod</text>
</g>
<!-- both&#45;22 -->
<g id="node23" class="node">
<title>both&#45;22</title>
<ellipse fill="none" stroke="black" cx="608.6" cy="-105" rx="46.29" ry="18"/>
<text text-anchor="middle" x="608.6" y="-101.3" font-family="Times,serif" font-size="14.00">both&#45;22</text>
</g>
<!-- disciplined&#45;23&#45;&gt;both&#45;22 -->
<g id="edge23" class="edge">
<title>disciplined&#45;23&#45;&gt;both&#45;22</title>
<path fill="none" stroke="black" d="M631.38,-176.47C622.76,-171.34 614.67,-164.63 609.6,-156 605.67,-149.31 604.36,-141.2 604.32,-133.47"/>
<polygon fill="black" stroke="black" points="607.82,-133.53 604.93,-123.34 600.83,-133.11 607.82,-133.53"/>
<text text-anchor="middle" x="646.1" y="-144.8" font-family="Times,serif" font-size="14.00">cc:preconj</text>
</g>
<!-- disciplined&#45;23&#45;&gt;profitable&#45;25 -->
<g id="edge27" class="edge">
<title>disciplined&#45;23&#45;&gt;profitable&#45;25</title>
<path fill="none" stroke="black" d="M679.5,-173.97C686.04,-163.64 695.29,-150.65 705.6,-141 711.01,-135.94 717.25,-131.2 723.57,-126.94"/>
<polygon fill="black" stroke="black" points="725.61,-129.79 732.15,-121.46 721.84,-123.89 725.61,-129.79"/>
<text text-anchor="middle" x="736.1" y="-144.8" font-family="Times,serif" font-size="14.00">conj:and</text>
</g>
<!-- and&#45;24 -->
<g id="node25" class="node">
<title>and&#45;24</title>
<ellipse fill="none" stroke="black" cx="761.6" cy="-18" rx="42.49" ry="18"/>
<text text-anchor="middle" x="761.6" y="-14.3" font-family="Times,serif" font-size="14.00">and&#45;24</text>
</g>
<!-- profitable&#45;25&#45;&gt;and&#45;24 -->
<g id="edge25" class="edge">
<title>profitable&#45;25&#45;&gt;and&#45;24</title>
<path fill="none" stroke="black" d="M761.6,-86.8C761.6,-75.16 761.6,-59.55 761.6,-46.24"/>
<polygon fill="black" stroke="black" points="765.1,-46.18 761.6,-36.18 758.1,-46.18 765.1,-46.18"/>
<text text-anchor="middle" x="769.6" y="-57.8" font-family="Times,serif" font-size="14.00">cc</text>
</g>
</g>
</svg>
