<?xml version="1.0" encoding="UTF-8" standalone="no"?>
<!DOCTYPE svg PUBLIC "-//W3C//DTD SVG 1.1//EN"
 "http://www.w3.org/Graphics/SVG/1.1/DTD/svg11.dtd">
<!-- Generated by graphviz version 2.43.0 (0)
 -->
<!-- Title: %3 Pages: 1 -->
<svg width="816pt" height="392pt"
 viewBox="0.00 0.00 816.19 392.00" xmlns="http://www.w3.org/2000/svg" xmlns:xlink="http://www.w3.org/1999/xlink">
<g id="graph0" class="graph" transform="scale(1 1) rotate(0) translate(4 388)">
<title>%3</title>
<polygon fill="white" stroke="transparent" points="-4,4 -4,-388 812.19,-388 812.19,4 -4,4"/>
<!-- Actors&#45;2 -->
<g id="node1" class="node">
<title>Actors&#45;2</title>
<ellipse fill="none" stroke="black" cx="105.4" cy="-105" rx="49.29" ry="18"/>
<text text-anchor="middle" x="105.4" y="-101.3" font-family="Times,serif" font-size="14.00">Actors&#45;2</text>
</g>
<!-- The&#45;1 -->
<g id="node2" class="node">
<title>The&#45;1</title>
<ellipse fill="none" stroke="black" cx="36.4" cy="-18" rx="36.29" ry="18"/>
<text text-anchor="middle" x="36.4" y="-14.3" font-family="Times,serif" font-size="14.00">The&#45;1</text>
</g>
<!-- Actors&#45;2&#45;&gt;The&#45;1 -->
<g id="edge1" class="edge">
<title>Actors&#45;2&#45;&gt;The&#45;1</title>
<path fill="none" stroke="black" d="M92.09,-87.61C81.81,-74.95 67.44,-57.24 55.86,-42.98"/>
<polygon fill="black" stroke="black" points="58.45,-40.61 49.43,-35.05 53.01,-45.02 58.45,-40.61"/>
<text text-anchor="middle" x="87.4" y="-57.8" font-family="Times,serif" font-size="14.00">det</text>
</g>
<!-- &#39;&#45;3 -->
<g id="node4" class="node">
<title>&#39;&#45;3</title>
<ellipse fill="none" stroke="black" cx="117.4" cy="-18" rx="27" ry="18"/>
<text text-anchor="middle" x="117.4" y="-14.3" font-family="Times,serif" font-size="14.00">&#39;&#45;3</text>
</g>
<!-- Actors&#45;2&#45;&gt;&#39;&#45;3 -->
<g id="edge3" class="edge">
<title>Actors&#45;2&#45;&gt;&#39;&#45;3</title>
<path fill="none" stroke="black" d="M107.83,-86.8C109.47,-75.16 111.67,-59.55 113.55,-46.24"/>
<polygon fill="black" stroke="black" points="117.04,-46.57 114.97,-36.18 110.11,-45.59 117.04,-46.57"/>
<text text-anchor="middle" x="128.4" y="-57.8" font-family="Times,serif" font-size="14.00">case</text>
</g>
<!-- Centre&#45;4 -->
<g id="node3" class="node">
<title>Centre&#45;4</title>
<ellipse fill="none" stroke="black" cx="216.4" cy="-192" rx="51.19" ry="18"/>
<text text-anchor="middle" x="216.4" y="-188.3" font-family="Times,serif" font-size="14.00">Centre&#45;4</text>
</g>
<!-- Centre&#45;4&#45;&gt;Actors&#45;2 -->
<g id="edge2" class="edge">
<title>Centre&#45;4&#45;&gt;Actors&#45;2</title>
<path fill="none" stroke="black" d="M180.48,-179.04C166.99,-173.42 152.1,-165.78 140.4,-156 132.31,-149.24 125.22,-140.19 119.58,-131.65"/>
<polygon fill="black" stroke="black" points="122.49,-129.69 114.24,-123.04 116.54,-133.38 122.49,-129.69"/>
<text text-anchor="middle" x="178.9" y="-144.8" font-family="Times,serif" font-size="14.00">nmod:poss</text>
</g>
<!-- Garden&#45;7 -->
<g id="node7" class="node">
<title>Garden&#45;7</title>
<ellipse fill="none" stroke="black" cx="226.4" cy="-105" rx="53.89" ry="18"/>
<text text-anchor="middle" x="226.4" y="-101.3" font-family="Times,serif" font-size="14.00">Garden&#45;7</text>
</g>
<!-- Centre&#45;4&#45;&gt;Garden&#45;7 -->
<g id="edge8" class="edge">
<title>Centre&#45;4&#45;&gt;Garden&#45;7</title>
<path fill="none" stroke="black" d="M218.42,-173.8C219.79,-162.16 221.63,-146.55 223.19,-133.24"/>
<polygon fill="black" stroke="black" points="226.68,-133.52 224.38,-123.18 219.73,-132.7 226.68,-133.52"/>
<text text-anchor="middle" x="251.4" y="-144.8" font-family="Times,serif" font-size="14.00">nmod:in</text>
</g>
<!-- functioned&#45;9 -->
<g id="node5" class="node">
<title>functioned&#45;9</title>
<ellipse fill="none" stroke="black" cx="399.4" cy="-366" rx="68.79" ry="18"/>
<text text-anchor="middle" x="399.4" y="-362.3" font-family="Times,serif" font-size="14.00">functioned&#45;9</text>
</g>
<!-- functioned&#45;9&#45;&gt;Centre&#45;4 -->
<g id="edge4" class="edge">
<title>functioned&#45;9&#45;&gt;Centre&#45;4</title>
<path fill="none" stroke="black" d="M341.99,-355.86C305.67,-347.02 260.75,-329.88 234.4,-297 217.08,-275.4 213.94,-243.07 214.26,-220.21"/>
<polygon fill="black" stroke="black" points="217.76,-220.25 214.64,-210.13 210.77,-219.99 217.76,-220.25"/>
<text text-anchor="middle" x="254.4" y="-275.3" font-family="Times,serif" font-size="14.00">nsubj</text>
</g>
<!-- offers&#45;14 -->
<g id="node6" class="node">
<title>offers&#45;14</title>
<ellipse fill="none" stroke="black" cx="335.4" cy="-279" rx="51.99" ry="18"/>
<text text-anchor="middle" x="335.4" y="-275.3" font-family="Times,serif" font-size="14.00">offers&#45;14</text>
</g>
<!-- functioned&#45;9&#45;&gt;offers&#45;14 -->
<g id="edge13" class="edge">
<title>functioned&#45;9&#45;&gt;offers&#45;14</title>
<path fill="none" stroke="black" d="M373.19,-349.12C366.01,-343.77 358.74,-337.28 353.4,-330 348.41,-323.2 344.69,-314.88 341.96,-307"/>
<polygon fill="black" stroke="black" points="345.3,-305.93 339.03,-297.39 338.6,-307.97 345.3,-305.93"/>
<text text-anchor="middle" x="383.9" y="-318.8" font-family="Times,serif" font-size="14.00">conj:and</text>
</g>
<!-- has&#45;8 -->
<g id="node10" class="node">
<title>has&#45;8</title>
<ellipse fill="none" stroke="black" cx="441.4" cy="-279" rx="36" ry="18"/>
<text text-anchor="middle" x="441.4" y="-275.3" font-family="Times,serif" font-size="14.00">has&#45;8</text>
</g>
<!-- functioned&#45;9&#45;&gt;has&#45;8 -->
<g id="edge9" class="edge">
<title>functioned&#45;9&#45;&gt;has&#45;8</title>
<path fill="none" stroke="black" d="M407.9,-347.8C413.84,-335.78 421.88,-319.51 428.59,-305.92"/>
<polygon fill="black" stroke="black" points="431.9,-307.11 433.2,-296.6 425.63,-304.01 431.9,-307.11"/>
<text text-anchor="middle" x="436.4" y="-318.8" font-family="Times,serif" font-size="14.00">aux</text>
</g>
<!-- 1980&#45;11 -->
<g id="node11" class="node">
<title>1980&#45;11</title>
<ellipse fill="none" stroke="black" cx="687.4" cy="-279" rx="48.99" ry="18"/>
<text text-anchor="middle" x="687.4" y="-275.3" font-family="Times,serif" font-size="14.00">1980&#45;11</text>
</g>
<!-- functioned&#45;9&#45;&gt;1980&#45;11 -->
<g id="edge11" class="edge">
<title>functioned&#45;9&#45;&gt;1980&#45;11</title>
<path fill="none" stroke="black" d="M443.14,-352.09C496.47,-336.35 586.22,-309.86 640.81,-293.75"/>
<polygon fill="black" stroke="black" points="641.97,-297.06 650.57,-290.87 639.99,-290.34 641.97,-297.06"/>
<text text-anchor="middle" x="593.4" y="-318.8" font-family="Times,serif" font-size="14.00">obl:since</text>
</g>
<!-- offers&#45;14&#45;&gt;Centre&#45;4 -->
<g id="edge5" class="edge">
<title>offers&#45;14&#45;&gt;Centre&#45;4</title>
<path fill="none" stroke="black" d="M313.85,-262.61C295.01,-249.15 267.46,-229.48 246.46,-214.47"/>
<polygon fill="black" stroke="black" points="248.36,-211.53 238.19,-208.57 244.29,-217.23 248.36,-211.53"/>
<text text-anchor="middle" x="303.4" y="-231.8" font-family="Times,serif" font-size="14.00">nsubj</text>
</g>
<!-- and&#45;13 -->
<g id="node13" class="node">
<title>and&#45;13</title>
<ellipse fill="none" stroke="black" cx="328.4" cy="-192" rx="42.49" ry="18"/>
<text text-anchor="middle" x="328.4" y="-188.3" font-family="Times,serif" font-size="14.00">and&#45;13</text>
</g>
<!-- offers&#45;14&#45;&gt;and&#45;13 -->
<g id="edge12" class="edge">
<title>offers&#45;14&#45;&gt;and&#45;13</title>
<path fill="none" stroke="black" d="M333.98,-260.8C333.02,-249.16 331.74,-233.55 330.64,-220.24"/>
<polygon fill="black" stroke="black" points="334.12,-219.85 329.81,-210.18 327.14,-220.43 334.12,-219.85"/>
<text text-anchor="middle" x="340.4" y="-231.8" font-family="Times,serif" font-size="14.00">cc</text>
</g>
<!-- variety&#45;16 -->
<g id="node14" class="node">
<title>variety&#45;16</title>
<ellipse fill="none" stroke="black" cx="446.4" cy="-192" rx="57.69" ry="18"/>
<text text-anchor="middle" x="446.4" y="-188.3" font-family="Times,serif" font-size="14.00">variety&#45;16</text>
</g>
<!-- offers&#45;14&#45;&gt;variety&#45;16 -->
<g id="edge15" class="edge">
<title>offers&#45;14&#45;&gt;variety&#45;16</title>
<path fill="none" stroke="black" d="M355.76,-262.41C372.98,-249.22 397.89,-230.15 417.23,-215.33"/>
<polygon fill="black" stroke="black" points="419.6,-217.93 425.41,-209.07 415.35,-212.37 419.6,-217.93"/>
<text text-anchor="middle" x="409.4" y="-231.8" font-family="Times,serif" font-size="14.00">obj</text>
</g>
<!-- atmosphere&#45;23 -->
<g id="node19" class="node">
<title>atmosphere&#45;23</title>
<ellipse fill="none" stroke="black" cx="602.4" cy="-192" rx="80.69" ry="18"/>
<text text-anchor="middle" x="602.4" y="-188.3" font-family="Times,serif" font-size="14.00">atmosphere&#45;23</text>
</g>
<!-- offers&#45;14&#45;&gt;atmosphere&#45;23 -->
<g id="edge22" class="edge">
<title>offers&#45;14&#45;&gt;atmosphere&#45;23</title>
<path fill="none" stroke="black" d="M372.24,-266.27C417.8,-251.77 495.73,-226.96 548.14,-210.27"/>
<polygon fill="black" stroke="black" points="549.47,-213.52 557.93,-207.15 547.34,-206.85 549.47,-213.52"/>
<text text-anchor="middle" x="505.4" y="-231.8" font-family="Times,serif" font-size="14.00">obl:in</text>
</g>
<!-- in&#45;5 -->
<g id="node8" class="node">
<title>in&#45;5</title>
<ellipse fill="none" stroke="black" cx="214.4" cy="-18" rx="28.7" ry="18"/>
<text text-anchor="middle" x="214.4" y="-14.3" font-family="Times,serif" font-size="14.00">in&#45;5</text>
</g>
<!-- Garden&#45;7&#45;&gt;in&#45;5 -->
<g id="edge6" class="edge">
<title>Garden&#45;7&#45;&gt;in&#45;5</title>
<path fill="none" stroke="black" d="M223.97,-86.8C222.33,-75.16 220.12,-59.55 218.24,-46.24"/>
<polygon fill="black" stroke="black" points="221.69,-45.59 216.82,-36.18 214.75,-46.57 221.69,-45.59"/>
<text text-anchor="middle" x="237.4" y="-57.8" font-family="Times,serif" font-size="14.00">case</text>
</g>
<!-- Covent&#45;6 -->
<g id="node9" class="node">
<title>Covent&#45;6</title>
<ellipse fill="none" stroke="black" cx="313.4" cy="-18" rx="51.99" ry="18"/>
<text text-anchor="middle" x="313.4" y="-14.3" font-family="Times,serif" font-size="14.00">Covent&#45;6</text>
</g>
<!-- Garden&#45;7&#45;&gt;Covent&#45;6 -->
<g id="edge7" class="edge">
<title>Garden&#45;7&#45;&gt;Covent&#45;6</title>
<path fill="none" stroke="black" d="M243.17,-87.61C256.29,-74.79 274.7,-56.8 289.38,-42.46"/>
<polygon fill="black" stroke="black" points="291.97,-44.83 296.67,-35.34 287.08,-39.82 291.97,-44.83"/>
<text text-anchor="middle" x="312.4" y="-57.8" font-family="Times,serif" font-size="14.00">compound</text>
</g>
<!-- since&#45;10 -->
<g id="node12" class="node">
<title>since&#45;10</title>
<ellipse fill="none" stroke="black" cx="750.4" cy="-192" rx="49.29" ry="18"/>
<text text-anchor="middle" x="750.4" y="-188.3" font-family="Times,serif" font-size="14.00">since&#45;10</text>
</g>
<!-- 1980&#45;11&#45;&gt;since&#45;10 -->
<g id="edge10" class="edge">
<title>1980&#45;11&#45;&gt;since&#45;10</title>
<path fill="none" stroke="black" d="M699.84,-261.21C709.05,-248.79 721.73,-231.67 732.09,-217.7"/>
<polygon fill="black" stroke="black" points="735.05,-219.59 738.19,-209.47 729.42,-215.42 735.05,-219.59"/>
<text text-anchor="middle" x="739.4" y="-231.8" font-family="Times,serif" font-size="14.00">case</text>
</g>
<!-- a&#45;15 -->
<g id="node15" class="node">
<title>a&#45;15</title>
<ellipse fill="none" stroke="black" cx="339.4" cy="-105" rx="30.59" ry="18"/>
<text text-anchor="middle" x="339.4" y="-101.3" font-family="Times,serif" font-size="14.00">a&#45;15</text>
</g>
<!-- variety&#45;16&#45;&gt;a&#45;15 -->
<g id="edge14" class="edge">
<title>variety&#45;16&#45;&gt;a&#45;15</title>
<path fill="none" stroke="black" d="M426.27,-175.01C408.87,-161.19 383.62,-141.13 364.83,-126.2"/>
<polygon fill="black" stroke="black" points="366.96,-123.42 356.95,-119.95 362.6,-128.91 366.96,-123.42"/>
<text text-anchor="middle" x="411.4" y="-144.8" font-family="Times,serif" font-size="14.00">det</text>
</g>
<!-- classes&#45;19 -->
<g id="node16" class="node">
<title>classes&#45;19</title>
<ellipse fill="none" stroke="black" cx="446.4" cy="-105" rx="58.49" ry="18"/>
<text text-anchor="middle" x="446.4" y="-101.3" font-family="Times,serif" font-size="14.00">classes&#45;19</text>
</g>
<!-- variety&#45;16&#45;&gt;classes&#45;19 -->
<g id="edge18" class="edge">
<title>variety&#45;16&#45;&gt;classes&#45;19</title>
<path fill="none" stroke="black" d="M446.4,-173.8C446.4,-162.16 446.4,-146.55 446.4,-133.24"/>
<polygon fill="black" stroke="black" points="449.9,-133.18 446.4,-123.18 442.9,-133.18 449.9,-133.18"/>
<text text-anchor="middle" x="475.4" y="-144.8" font-family="Times,serif" font-size="14.00">nmod:of</text>
</g>
<!-- of&#45;17 -->
<g id="node17" class="node">
<title>of&#45;17</title>
<ellipse fill="none" stroke="black" cx="442.4" cy="-18" rx="34.39" ry="18"/>
<text text-anchor="middle" x="442.4" y="-14.3" font-family="Times,serif" font-size="14.00">of&#45;17</text>
</g>
<!-- classes&#45;19&#45;&gt;of&#45;17 -->
<g id="edge16" class="edge">
<title>classes&#45;19&#45;&gt;of&#45;17</title>
<path fill="none" stroke="black" d="M445.59,-86.8C445.04,-75.16 444.3,-59.55 443.68,-46.24"/>
<polygon fill="black" stroke="black" points="447.17,-46 443.21,-36.18 440.18,-46.33 447.17,-46"/>
<text text-anchor="middle" x="461.4" y="-57.8" font-family="Times,serif" font-size="14.00">case</text>
</g>
<!-- professional&#45;18 -->
<g id="node18" class="node">
<title>professional&#45;18</title>
<ellipse fill="none" stroke="black" cx="576.4" cy="-18" rx="81.79" ry="18"/>
<text text-anchor="middle" x="576.4" y="-14.3" font-family="Times,serif" font-size="14.00">professional&#45;18</text>
</g>
<!-- classes&#45;19&#45;&gt;professional&#45;18 -->
<g id="edge17" class="edge">
<title>classes&#45;19&#45;&gt;professional&#45;18</title>
<path fill="none" stroke="black" d="M470.24,-88.41C490.56,-75.12 519.99,-55.88 542.72,-41.02"/>
<polygon fill="black" stroke="black" points="544.92,-43.76 551.37,-35.36 541.09,-37.9 544.92,-43.76"/>
<text text-anchor="middle" x="539.4" y="-57.8" font-family="Times,serif" font-size="14.00">amod</text>
</g>
<!-- in&#45;20 -->
<g id="node20" class="node">
<title>in&#45;20</title>
<ellipse fill="none" stroke="black" cx="557.4" cy="-105" rx="34.39" ry="18"/>
<text text-anchor="middle" x="557.4" y="-101.3" font-family="Times,serif" font-size="14.00">in&#45;20</text>
</g>
<!-- atmosphere&#45;23&#45;&gt;in&#45;20 -->
<g id="edge19" class="edge">
<title>atmosphere&#45;23&#45;&gt;in&#45;20</title>
<path fill="none" stroke="black" d="M593.06,-173.94C589.96,-168.25 586.51,-161.86 583.4,-156 579.22,-148.14 574.73,-139.55 570.67,-131.74"/>
<polygon fill="black" stroke="black" points="573.7,-129.97 565.99,-122.71 567.48,-133.19 573.7,-129.97"/>
<text text-anchor="middle" x="599.4" y="-144.8" font-family="Times,serif" font-size="14.00">case</text>
</g>
<!-- a&#45;21 -->
<g id="node21" class="node">
<title>a&#45;21</title>
<ellipse fill="none" stroke="black" cx="640.4" cy="-105" rx="30.59" ry="18"/>
<text text-anchor="middle" x="640.4" y="-101.3" font-family="Times,serif" font-size="14.00">a&#45;21</text>
</g>
<!-- atmosphere&#45;23&#45;&gt;a&#45;21 -->
<g id="edge20" class="edge">
<title>atmosphere&#45;23&#45;&gt;a&#45;21</title>
<path fill="none" stroke="black" d="M610.09,-173.8C615.46,-161.78 622.74,-145.51 628.81,-131.92"/>
<polygon fill="black" stroke="black" points="632.09,-133.15 632.98,-122.6 625.7,-130.3 632.09,-133.15"/>
<text text-anchor="middle" x="636.4" y="-144.8" font-family="Times,serif" font-size="14.00">det</text>
</g>
<!-- relaxed&#45;22 -->
<g id="node22" class="node">
<title>relaxed&#45;22</title>
<ellipse fill="none" stroke="black" cx="748.4" cy="-105" rx="59.59" ry="18"/>
<text text-anchor="middle" x="748.4" y="-101.3" font-family="Times,serif" font-size="14.00">relaxed&#45;22</text>
</g>
<!-- atmosphere&#45;23&#45;&gt;relaxed&#45;22 -->
<g id="edge21" class="edge">
<title>atmosphere&#45;23&#45;&gt;relaxed&#45;22</title>
<path fill="none" stroke="black" d="M629.86,-175.01C653.5,-161.25 687.76,-141.3 713.37,-126.39"/>
<polygon fill="black" stroke="black" points="715.16,-129.4 722.04,-121.34 711.64,-123.35 715.16,-129.4"/>
<text text-anchor="middle" x="704.4" y="-144.8" font-family="Times,serif" font-size="14.00">amod</text>
</g>
</g>
</svg>
