<?xml version="1.0" encoding="UTF-8" standalone="no"?>
<!DOCTYPE svg PUBLIC "-//W3C//DTD SVG 1.1//EN"
 "http://www.w3.org/Graphics/SVG/1.1/DTD/svg11.dtd">
<!-- Generated by graphviz version 2.43.0 (0)
 -->
<!-- Title: %3 Pages: 1 -->
<svg width="360pt" height="479pt"
 viewBox="0.00 0.00 360.35 479.00" xmlns="http://www.w3.org/2000/svg" xmlns:xlink="http://www.w3.org/1999/xlink">
<g id="graph0" class="graph" transform="scale(1 1) rotate(0) translate(4 475)">
<title>%3</title>
<polygon fill="white" stroke="transparent" points="-4,4 -4,-475 356.35,-475 356.35,4 -4,4"/>
<!-- caters&#45;3 -->
<g id="node1" class="node">
<title>caters&#45;3</title>
<ellipse fill="none" stroke="black" cx="110" cy="-453" rx="48.19" ry="18"/>
<text text-anchor="middle" x="110" y="-449.3" font-family="Times,serif" font-size="14.00">caters&#45;3</text>
</g>
<!-- It&#45;1 -->
<g id="node2" class="node">
<title>It&#45;1</title>
<ellipse fill="none" stroke="black" cx="27" cy="-366" rx="27" ry="18"/>
<text text-anchor="middle" x="27" y="-362.3" font-family="Times,serif" font-size="14.00">It&#45;1</text>
</g>
<!-- caters&#45;3&#45;&gt;It&#45;1 -->
<g id="edge1" class="edge">
<title>caters&#45;3&#45;&gt;It&#45;1</title>
<path fill="none" stroke="black" d="M88.55,-436.57C81.09,-430.79 72.87,-423.93 66,-417 58.1,-409.02 50.3,-399.46 43.78,-390.85"/>
<polygon fill="black" stroke="black" points="46.48,-388.62 37.73,-382.65 40.85,-392.77 46.48,-388.62"/>
<text text-anchor="middle" x="86" y="-405.8" font-family="Times,serif" font-size="14.00">nsubj</text>
</g>
<!-- also&#45;2 -->
<g id="node3" class="node">
<title>also&#45;2</title>
<ellipse fill="none" stroke="black" cx="110" cy="-366" rx="38.19" ry="18"/>
<text text-anchor="middle" x="110" y="-362.3" font-family="Times,serif" font-size="14.00">also&#45;2</text>
</g>
<!-- caters&#45;3&#45;&gt;also&#45;2 -->
<g id="edge2" class="edge">
<title>caters&#45;3&#45;&gt;also&#45;2</title>
<path fill="none" stroke="black" d="M110,-434.8C110,-423.16 110,-407.55 110,-394.24"/>
<polygon fill="black" stroke="black" points="113.5,-394.18 110,-384.18 106.5,-394.18 113.5,-394.18"/>
<text text-anchor="middle" x="138.5" y="-405.8" font-family="Times,serif" font-size="14.00">advmod</text>
</g>
<!-- those&#45;5 -->
<g id="node4" class="node">
<title>those&#45;5</title>
<ellipse fill="none" stroke="black" cx="211" cy="-366" rx="44.69" ry="18"/>
<text text-anchor="middle" x="211" y="-362.3" font-family="Times,serif" font-size="14.00">those&#45;5</text>
</g>
<!-- caters&#45;3&#45;&gt;those&#45;5 -->
<g id="edge4" class="edge">
<title>caters&#45;3&#45;&gt;those&#45;5</title>
<path fill="none" stroke="black" d="M138.78,-438.37C149.48,-432.59 161.36,-425.26 171,-417 179.48,-409.73 187.47,-400.46 194.04,-391.89"/>
<polygon fill="black" stroke="black" points="197,-393.77 200.11,-383.64 191.37,-389.62 197,-393.77"/>
<text text-anchor="middle" x="209.5" y="-405.8" font-family="Times,serif" font-size="14.00">obl:for</text>
</g>
<!-- for&#45;4 -->
<g id="node5" class="node">
<title>for&#45;4</title>
<ellipse fill="none" stroke="black" cx="116" cy="-279" rx="32.49" ry="18"/>
<text text-anchor="middle" x="116" y="-275.3" font-family="Times,serif" font-size="14.00">for&#45;4</text>
</g>
<!-- those&#45;5&#45;&gt;for&#45;4 -->
<g id="edge3" class="edge">
<title>those&#45;5&#45;&gt;for&#45;4</title>
<path fill="none" stroke="black" d="M177.97,-353.75C159.02,-346.7 137.68,-337.55 131,-330 125.34,-323.61 121.81,-315.15 119.62,-307.01"/>
<polygon fill="black" stroke="black" points="123,-306.1 117.49,-297.05 116.16,-307.56 123,-306.1"/>
<text text-anchor="middle" x="147" y="-318.8" font-family="Times,serif" font-size="14.00">case</text>
</g>
<!-- want&#45;7 -->
<g id="node6" class="node">
<title>want&#45;7</title>
<ellipse fill="none" stroke="black" cx="212" cy="-279" rx="42.49" ry="18"/>
<text text-anchor="middle" x="212" y="-275.3" font-family="Times,serif" font-size="14.00">want&#45;7</text>
</g>
<!-- those&#45;5&#45;&gt;want&#45;7 -->
<g id="edge7" class="edge">
<title>those&#45;5&#45;&gt;want&#45;7</title>
<path fill="none" stroke="black" d="M186.18,-350.96C173.25,-341.68 161.38,-328.72 168,-315 170.66,-309.48 174.66,-304.56 179.19,-300.28"/>
<polygon fill="black" stroke="black" points="181.68,-302.77 187.16,-293.69 177.22,-297.37 181.68,-302.77"/>
<text text-anchor="middle" x="196.5" y="-318.8" font-family="Times,serif" font-size="14.00">acl:relcl</text>
</g>
<!-- who&#45;6 -->
<g id="node7" class="node">
<title>who&#45;6</title>
<ellipse fill="none" stroke="black" cx="314" cy="-279" rx="38.19" ry="18"/>
<text text-anchor="middle" x="314" y="-275.3" font-family="Times,serif" font-size="14.00">who&#45;6</text>
</g>
<!-- those&#45;5&#45;&gt;who&#45;6 -->
<g id="edge6" class="edge">
<title>those&#45;5&#45;&gt;who&#45;6</title>
<path fill="none" stroke="black" d="M239.27,-351.88C250.38,-346.02 262.88,-338.51 273,-330 281.64,-322.74 289.81,-313.48 296.55,-304.9"/>
<polygon fill="black" stroke="black" points="299.55,-306.74 302.79,-296.65 293.97,-302.52 299.55,-306.74"/>
<text text-anchor="middle" x="298.5" y="-318.8" font-family="Times,serif" font-size="14.00">ref</text>
</g>
<!-- want&#45;7&#45;&gt;those&#45;5 -->
<g id="edge5" class="edge">
<title>want&#45;7&#45;&gt;those&#45;5</title>
<path fill="none" stroke="black" d="M222.57,-296.45C227.51,-306.09 231.76,-318.59 229,-330 228.27,-333.02 227.23,-336.08 226.01,-339.06"/>
<polygon fill="black" stroke="black" points="222.8,-337.66 221.69,-348.19 229.13,-340.65 222.8,-337.66"/>
<text text-anchor="middle" x="249" y="-318.8" font-family="Times,serif" font-size="14.00">nsubj</text>
</g>
<!-- sessions&#45;10 -->
<g id="node10" class="node">
<title>sessions&#45;10</title>
<ellipse fill="none" stroke="black" cx="212" cy="-192" rx="64.19" ry="18"/>
<text text-anchor="middle" x="212" y="-188.3" font-family="Times,serif" font-size="14.00">sessions&#45;10</text>
</g>
<!-- want&#45;7&#45;&gt;sessions&#45;10 -->
<g id="edge10" class="edge">
<title>want&#45;7&#45;&gt;sessions&#45;10</title>
<path fill="none" stroke="black" d="M212,-260.8C212,-249.16 212,-233.55 212,-220.24"/>
<polygon fill="black" stroke="black" points="215.5,-220.18 212,-210.18 208.5,-220.18 215.5,-220.18"/>
<text text-anchor="middle" x="223" y="-231.8" font-family="Times,serif" font-size="14.00">obj</text>
</g>
<!-- intensive&#45;9 -->
<g id="node8" class="node">
<title>intensive&#45;9</title>
<ellipse fill="none" stroke="black" cx="212" cy="-105" rx="61.99" ry="18"/>
<text text-anchor="middle" x="212" y="-101.3" font-family="Times,serif" font-size="14.00">intensive&#45;9</text>
</g>
<!-- more&#45;8 -->
<g id="node9" class="node">
<title>more&#45;8</title>
<ellipse fill="none" stroke="black" cx="212" cy="-18" rx="43.59" ry="18"/>
<text text-anchor="middle" x="212" y="-14.3" font-family="Times,serif" font-size="14.00">more&#45;8</text>
</g>
<!-- intensive&#45;9&#45;&gt;more&#45;8 -->
<g id="edge8" class="edge">
<title>intensive&#45;9&#45;&gt;more&#45;8</title>
<path fill="none" stroke="black" d="M212,-86.8C212,-75.16 212,-59.55 212,-46.24"/>
<polygon fill="black" stroke="black" points="215.5,-46.18 212,-36.18 208.5,-46.18 215.5,-46.18"/>
<text text-anchor="middle" x="240.5" y="-57.8" font-family="Times,serif" font-size="14.00">advmod</text>
</g>
<!-- sessions&#45;10&#45;&gt;intensive&#45;9 -->
<g id="edge9" class="edge">
<title>sessions&#45;10&#45;&gt;intensive&#45;9</title>
<path fill="none" stroke="black" d="M212,-173.8C212,-162.16 212,-146.55 212,-133.24"/>
<polygon fill="black" stroke="black" points="215.5,-133.18 212,-123.18 208.5,-133.18 215.5,-133.18"/>
<text text-anchor="middle" x="232" y="-144.8" font-family="Times,serif" font-size="14.00">amod</text>
</g>
</g>
</svg>
