<?xml version="1.0" encoding="UTF-8" standalone="no"?>
<!DOCTYPE svg PUBLIC "-//W3C//DTD SVG 1.1//EN"
 "http://www.w3.org/Graphics/SVG/1.1/DTD/svg11.dtd">
<!-- Generated by graphviz version 2.43.0 (0)
 -->
<!-- Title: %3 Pages: 1 -->
<svg width="1263pt" height="827pt"
 viewBox="0.00 0.00 1262.74 827.00" xmlns="http://www.w3.org/2000/svg" xmlns:xlink="http://www.w3.org/1999/xlink">
<g id="graph0" class="graph" transform="scale(1 1) rotate(0) translate(4 823)">
<title>%3</title>
<polygon fill="white" stroke="transparent" points="-4,4 -4,-823 1258.74,-823 1258.74,4 -4,4"/>
<!-- movement&#45;2 -->
<g id="node1" class="node">
<title>movement&#45;2</title>
<ellipse fill="none" stroke="black" cx="98.1" cy="-714" rx="68.49" ry="18"/>
<text text-anchor="middle" x="98.1" y="-710.3" font-family="Times,serif" font-size="14.00">movement&#45;2</text>
</g>
<!-- For&#45;1 -->
<g id="node2" class="node">
<title>For&#45;1</title>
<ellipse fill="none" stroke="black" cx="35.1" cy="-627" rx="35.19" ry="18"/>
<text text-anchor="middle" x="35.1" y="-623.3" font-family="Times,serif" font-size="14.00">For&#45;1</text>
</g>
<!-- movement&#45;2&#45;&gt;For&#45;1 -->
<g id="edge1" class="edge">
<title>movement&#45;2&#45;&gt;For&#45;1</title>
<path fill="none" stroke="black" d="M85.65,-696.21C76.38,-683.71 63.6,-666.45 53.2,-652.43"/>
<polygon fill="black" stroke="black" points="55.86,-650.13 47.09,-644.18 50.23,-654.3 55.86,-650.13"/>
<text text-anchor="middle" x="87.1" y="-666.8" font-family="Times,serif" font-size="14.00">case</text>
</g>
<!-- dance&#45;4 -->
<g id="node4" class="node">
<title>dance&#45;4</title>
<ellipse fill="none" stroke="black" cx="135.1" cy="-627" rx="46.59" ry="18"/>
<text text-anchor="middle" x="135.1" y="-623.3" font-family="Times,serif" font-size="14.00">dance&#45;4</text>
</g>
<!-- movement&#45;2&#45;&gt;dance&#45;4 -->
<g id="edge4" class="edge">
<title>movement&#45;2&#45;&gt;dance&#45;4</title>
<path fill="none" stroke="black" d="M105.58,-695.8C110.78,-683.85 117.81,-667.72 123.7,-654.18"/>
<polygon fill="black" stroke="black" points="126.96,-655.45 127.75,-644.89 120.55,-652.66 126.96,-655.45"/>
<text text-anchor="middle" x="149.6" y="-666.8" font-family="Times,serif" font-size="14.00">conj:and</text>
</g>
<!-- seems&#45;15 -->
<g id="node3" class="node">
<title>seems&#45;15</title>
<ellipse fill="none" stroke="black" cx="243.1" cy="-801" rx="54.69" ry="18"/>
<text text-anchor="middle" x="243.1" y="-797.3" font-family="Times,serif" font-size="14.00">seems&#45;15</text>
</g>
<!-- seems&#45;15&#45;&gt;movement&#45;2 -->
<g id="edge2" class="edge">
<title>seems&#45;15&#45;&gt;movement&#45;2</title>
<path fill="none" stroke="black" d="M198.81,-790.33C179.96,-784.86 158.38,-776.71 141.1,-765 131.33,-758.38 122.46,-748.99 115.34,-740.13"/>
<polygon fill="black" stroke="black" points="117.93,-737.74 109.09,-731.9 112.35,-741.98 117.93,-737.74"/>
<text text-anchor="middle" x="164.6" y="-753.8" font-family="Times,serif" font-size="14.00">obl:for</text>
</g>
<!-- seems&#45;15&#45;&gt;dance&#45;4 -->
<g id="edge5" class="edge">
<title>seems&#45;15&#45;&gt;dance&#45;4</title>
<path fill="none" stroke="black" d="M236.42,-783.11C222.73,-748.7 192.1,-672.93 184.1,-663 179.73,-657.59 174.33,-652.62 168.72,-648.24"/>
<polygon fill="black" stroke="black" points="170.6,-645.29 160.45,-642.25 166.5,-650.96 170.6,-645.29"/>
<text text-anchor="middle" x="239.6" y="-710.3" font-family="Times,serif" font-size="14.00">obl:for</text>
</g>
<!-- Studios&#45;8 -->
<g id="node6" class="node">
<title>Studios&#45;8</title>
<ellipse fill="none" stroke="black" cx="305.1" cy="-627" rx="54.69" ry="18"/>
<text text-anchor="middle" x="305.1" y="-623.3" font-family="Times,serif" font-size="14.00">Studios&#45;8</text>
</g>
<!-- seems&#45;15&#45;&gt;Studios&#45;8 -->
<g id="edge8" class="edge">
<title>seems&#45;15&#45;&gt;Studios&#45;8</title>
<path fill="none" stroke="black" d="M249.27,-782.88C260.08,-752.87 282.54,-690.58 295.43,-654.81"/>
<polygon fill="black" stroke="black" points="298.85,-655.65 298.95,-645.05 292.27,-653.27 298.85,-655.65"/>
<text text-anchor="middle" x="301.1" y="-710.3" font-family="Times,serif" font-size="14.00">nsubj</text>
</g>
<!-- one&#45;18 -->
<g id="node9" class="node">
<title>one&#45;18</title>
<ellipse fill="none" stroke="black" cx="423.1" cy="-714" rx="42.49" ry="18"/>
<text text-anchor="middle" x="423.1" y="-710.3" font-family="Times,serif" font-size="14.00">one&#45;18</text>
</g>
<!-- seems&#45;15&#45;&gt;one&#45;18 -->
<g id="edge18" class="edge">
<title>seems&#45;15&#45;&gt;one&#45;18</title>
<path fill="none" stroke="black" d="M273.22,-785.77C304.38,-771.06 353.05,-748.08 386.42,-732.32"/>
<polygon fill="black" stroke="black" points="388.27,-735.32 395.82,-727.88 385.28,-728.99 388.27,-735.32"/>
<text text-anchor="middle" x="367.6" y="-753.8" font-family="Times,serif" font-size="14.00">xcomp</text>
</g>
<!-- and&#45;3 -->
<g id="node5" class="node">
<title>and&#45;3</title>
<ellipse fill="none" stroke="black" cx="98.1" cy="-540" rx="36.29" ry="18"/>
<text text-anchor="middle" x="98.1" y="-536.3" font-family="Times,serif" font-size="14.00">and&#45;3</text>
</g>
<!-- dance&#45;4&#45;&gt;and&#45;3 -->
<g id="edge3" class="edge">
<title>dance&#45;4&#45;&gt;and&#45;3</title>
<path fill="none" stroke="black" d="M127.79,-609.21C122.57,-597.22 115.44,-580.85 109.48,-567.16"/>
<polygon fill="black" stroke="black" points="112.59,-565.53 105.39,-557.76 106.17,-568.32 112.59,-565.53"/>
<text text-anchor="middle" x="127.1" y="-579.8" font-family="Times,serif" font-size="14.00">cc</text>
</g>
<!-- the&#45;6 -->
<g id="node7" class="node">
<title>the&#45;6</title>
<ellipse fill="none" stroke="black" cx="187.1" cy="-540" rx="34.39" ry="18"/>
<text text-anchor="middle" x="187.1" y="-536.3" font-family="Times,serif" font-size="14.00">the&#45;6</text>
</g>
<!-- Studios&#45;8&#45;&gt;the&#45;6 -->
<g id="edge6" class="edge">
<title>Studios&#45;8&#45;&gt;the&#45;6</title>
<path fill="none" stroke="black" d="M283.45,-610.41C264.16,-596.51 235.8,-576.08 214.84,-560.99"/>
<polygon fill="black" stroke="black" points="216.8,-558.09 206.64,-555.08 212.71,-563.77 216.8,-558.09"/>
<text text-anchor="middle" x="266.1" y="-579.8" font-family="Times,serif" font-size="14.00">det</text>
</g>
<!-- Pineapple&#45;7 -->
<g id="node8" class="node">
<title>Pineapple&#45;7</title>
<ellipse fill="none" stroke="black" cx="305.1" cy="-540" rx="65.79" ry="18"/>
<text text-anchor="middle" x="305.1" y="-536.3" font-family="Times,serif" font-size="14.00">Pineapple&#45;7</text>
</g>
<!-- Studios&#45;8&#45;&gt;Pineapple&#45;7 -->
<g id="edge7" class="edge">
<title>Studios&#45;8&#45;&gt;Pineapple&#45;7</title>
<path fill="none" stroke="black" d="M305.1,-608.8C305.1,-597.16 305.1,-581.55 305.1,-568.24"/>
<polygon fill="black" stroke="black" points="308.6,-568.18 305.1,-558.18 301.6,-568.18 308.6,-568.18"/>
<text text-anchor="middle" x="342.1" y="-579.8" font-family="Times,serif" font-size="14.00">compound</text>
</g>
<!-- part&#45;12 -->
<g id="node10" class="node">
<title>part&#45;12</title>
<ellipse fill="none" stroke="black" cx="433.1" cy="-540" rx="44.69" ry="18"/>
<text text-anchor="middle" x="433.1" y="-536.3" font-family="Times,serif" font-size="14.00">part&#45;12</text>
</g>
<!-- Studios&#45;8&#45;&gt;part&#45;12 -->
<g id="edge13" class="edge">
<title>Studios&#45;8&#45;&gt;part&#45;12</title>
<path fill="none" stroke="black" d="M340.71,-613.23C354.54,-607.47 370.14,-599.93 383.1,-591 393.73,-583.67 404.06,-573.92 412.55,-564.98"/>
<polygon fill="black" stroke="black" points="415.32,-567.15 419.5,-557.41 410.16,-562.41 415.32,-567.15"/>
<text text-anchor="middle" x="431.1" y="-579.8" font-family="Times,serif" font-size="14.00">nmod:in</text>
</g>
<!-- one&#45;18&#45;&gt;Studios&#45;8 -->
<g id="edge9" class="edge">
<title>one&#45;18&#45;&gt;Studios&#45;8</title>
<path fill="none" stroke="black" d="M387.81,-704.06C371.13,-698.55 351.72,-690.17 337.1,-678 329.3,-671.51 322.77,-662.63 317.68,-654.14"/>
<polygon fill="black" stroke="black" points="320.65,-652.27 312.74,-645.23 314.53,-655.67 320.65,-652.27"/>
<text text-anchor="middle" x="378.1" y="-666.8" font-family="Times,serif" font-size="14.00">nsubj:xsubj</text>
</g>
<!-- to&#45;16 -->
<g id="node16" class="node">
<title>to&#45;16</title>
<ellipse fill="none" stroke="black" cx="423.1" cy="-627" rx="34.39" ry="18"/>
<text text-anchor="middle" x="423.1" y="-623.3" font-family="Times,serif" font-size="14.00">to&#45;16</text>
</g>
<!-- one&#45;18&#45;&gt;to&#45;16 -->
<g id="edge16" class="edge">
<title>one&#45;18&#45;&gt;to&#45;16</title>
<path fill="none" stroke="black" d="M423.1,-695.8C423.1,-684.16 423.1,-668.55 423.1,-655.24"/>
<polygon fill="black" stroke="black" points="426.6,-655.18 423.1,-645.18 419.6,-655.18 426.6,-655.18"/>
<text text-anchor="middle" x="441.6" y="-666.8" font-family="Times,serif" font-size="14.00">mark</text>
</g>
<!-- be&#45;17 -->
<g id="node17" class="node">
<title>be&#45;17</title>
<ellipse fill="none" stroke="black" cx="512.1" cy="-627" rx="36.29" ry="18"/>
<text text-anchor="middle" x="512.1" y="-623.3" font-family="Times,serif" font-size="14.00">be&#45;17</text>
</g>
<!-- one&#45;18&#45;&gt;be&#45;17 -->
<g id="edge17" class="edge">
<title>one&#45;18&#45;&gt;be&#45;17</title>
<path fill="none" stroke="black" d="M441.81,-697.7C448.92,-691.71 457.02,-684.68 464.1,-678 473.08,-669.53 482.57,-659.82 490.72,-651.22"/>
<polygon fill="black" stroke="black" points="493.48,-653.39 497.77,-643.71 488.38,-648.6 493.48,-653.39"/>
<text text-anchor="middle" x="491.6" y="-666.8" font-family="Times,serif" font-size="14.00">cop</text>
</g>
<!-- best&#45;21 -->
<g id="node18" class="node">
<title>best&#45;21</title>
<ellipse fill="none" stroke="black" cx="617.1" cy="-627" rx="45.49" ry="18"/>
<text text-anchor="middle" x="617.1" y="-623.3" font-family="Times,serif" font-size="14.00">best&#45;21</text>
</g>
<!-- one&#45;18&#45;&gt;best&#45;21 -->
<g id="edge21" class="edge">
<title>one&#45;18&#45;&gt;best&#45;21</title>
<path fill="none" stroke="black" d="M452.72,-701.14C469.11,-694.49 489.8,-685.96 508.1,-678 532.1,-667.56 558.82,-655.31 579.8,-645.55"/>
<polygon fill="black" stroke="black" points="581.42,-648.66 589,-641.26 578.46,-642.31 581.42,-648.66"/>
<text text-anchor="middle" x="571.1" y="-666.8" font-family="Times,serif" font-size="14.00">nmod:of</text>
</g>
<!-- in&#45;9 -->
<g id="node11" class="node">
<title>in&#45;9</title>
<ellipse fill="none" stroke="black" cx="238.1" cy="-453" rx="28.7" ry="18"/>
<text text-anchor="middle" x="238.1" y="-449.3" font-family="Times,serif" font-size="14.00">in&#45;9</text>
</g>
<!-- part&#45;12&#45;&gt;in&#45;9 -->
<g id="edge10" class="edge">
<title>part&#45;12&#45;&gt;in&#45;9</title>
<path fill="none" stroke="black" d="M399.4,-527.81C380.81,-521.36 357.45,-512.81 337.1,-504 313.41,-493.74 287.38,-480.52 267.96,-470.24"/>
<polygon fill="black" stroke="black" points="269.47,-467.08 259,-465.46 266.17,-473.26 269.47,-467.08"/>
<text text-anchor="middle" x="353.1" y="-492.8" font-family="Times,serif" font-size="14.00">case</text>
</g>
<!-- the&#45;10 -->
<g id="node12" class="node">
<title>the&#45;10</title>
<ellipse fill="none" stroke="black" cx="325.1" cy="-453" rx="40.09" ry="18"/>
<text text-anchor="middle" x="325.1" y="-449.3" font-family="Times,serif" font-size="14.00">the&#45;10</text>
</g>
<!-- part&#45;12&#45;&gt;the&#45;10 -->
<g id="edge11" class="edge">
<title>part&#45;12&#45;&gt;the&#45;10</title>
<path fill="none" stroke="black" d="M413.54,-523.61C396.38,-510.1 371.27,-490.34 352.18,-475.31"/>
<polygon fill="black" stroke="black" points="354.17,-472.43 344.15,-468.99 349.84,-477.93 354.17,-472.43"/>
<text text-anchor="middle" x="398.1" y="-492.8" font-family="Times,serif" font-size="14.00">det</text>
</g>
<!-- same&#45;11 -->
<g id="node13" class="node">
<title>same&#45;11</title>
<ellipse fill="none" stroke="black" cx="433.1" cy="-453" rx="50.09" ry="18"/>
<text text-anchor="middle" x="433.1" y="-449.3" font-family="Times,serif" font-size="14.00">same&#45;11</text>
</g>
<!-- part&#45;12&#45;&gt;same&#45;11 -->
<g id="edge12" class="edge">
<title>part&#45;12&#45;&gt;same&#45;11</title>
<path fill="none" stroke="black" d="M433.1,-521.8C433.1,-510.16 433.1,-494.55 433.1,-481.24"/>
<polygon fill="black" stroke="black" points="436.6,-481.18 433.1,-471.18 429.6,-481.18 436.6,-481.18"/>
<text text-anchor="middle" x="453.1" y="-492.8" font-family="Times,serif" font-size="14.00">amod</text>
</g>
<!-- town&#45;14 -->
<g id="node14" class="node">
<title>town&#45;14</title>
<ellipse fill="none" stroke="black" cx="549.1" cy="-453" rx="48.19" ry="18"/>
<text text-anchor="middle" x="549.1" y="-449.3" font-family="Times,serif" font-size="14.00">town&#45;14</text>
</g>
<!-- part&#45;12&#45;&gt;town&#45;14 -->
<g id="edge15" class="edge">
<title>part&#45;12&#45;&gt;town&#45;14</title>
<path fill="none" stroke="black" d="M453.84,-523.8C472.28,-510.29 499.44,-490.39 520.04,-475.29"/>
<polygon fill="black" stroke="black" points="522.15,-478.09 528.15,-469.35 518.01,-472.44 522.15,-478.09"/>
<text text-anchor="middle" x="527.1" y="-492.8" font-family="Times,serif" font-size="14.00">nmod:of</text>
</g>
<!-- of&#45;13 -->
<g id="node15" class="node">
<title>of&#45;13</title>
<ellipse fill="none" stroke="black" cx="531.1" cy="-366" rx="34.39" ry="18"/>
<text text-anchor="middle" x="531.1" y="-362.3" font-family="Times,serif" font-size="14.00">of&#45;13</text>
</g>
<!-- town&#45;14&#45;&gt;of&#45;13 -->
<g id="edge14" class="edge">
<title>town&#45;14&#45;&gt;of&#45;13</title>
<path fill="none" stroke="black" d="M545.45,-434.8C542.99,-423.16 539.68,-407.55 536.86,-394.24"/>
<polygon fill="black" stroke="black" points="540.23,-393.23 534.73,-384.18 533.38,-394.68 540.23,-393.23"/>
<text text-anchor="middle" x="558.1" y="-405.8" font-family="Times,serif" font-size="14.00">case</text>
</g>
<!-- of&#45;19 -->
<g id="node19" class="node">
<title>of&#45;19</title>
<ellipse fill="none" stroke="black" cx="565.1" cy="-540" rx="34.39" ry="18"/>
<text text-anchor="middle" x="565.1" y="-536.3" font-family="Times,serif" font-size="14.00">of&#45;19</text>
</g>
<!-- best&#45;21&#45;&gt;of&#45;19 -->
<g id="edge19" class="edge">
<title>best&#45;21&#45;&gt;of&#45;19</title>
<path fill="none" stroke="black" d="M606.82,-609.21C599.3,-596.9 588.95,-580 580.45,-566.09"/>
<polygon fill="black" stroke="black" points="583.38,-564.17 575.17,-557.47 577.41,-567.83 583.38,-564.17"/>
<text text-anchor="middle" x="611.1" y="-579.8" font-family="Times,serif" font-size="14.00">case</text>
</g>
<!-- the&#45;20 -->
<g id="node20" class="node">
<title>the&#45;20</title>
<ellipse fill="none" stroke="black" cx="658.1" cy="-540" rx="40.09" ry="18"/>
<text text-anchor="middle" x="658.1" y="-536.3" font-family="Times,serif" font-size="14.00">the&#45;20</text>
</g>
<!-- best&#45;21&#45;&gt;the&#45;20 -->
<g id="edge20" class="edge">
<title>best&#45;21&#45;&gt;the&#45;20</title>
<path fill="none" stroke="black" d="M625.2,-609.21C630.98,-597.22 638.87,-580.85 645.48,-567.16"/>
<polygon fill="black" stroke="black" points="648.82,-568.29 650.01,-557.76 642.52,-565.24 648.82,-568.29"/>
<text text-anchor="middle" x="652.1" y="-579.8" font-family="Times,serif" font-size="14.00">det</text>
</g>
<!-- is&#45;23 -->
<g id="node21" class="node">
<title>is&#45;23</title>
<ellipse fill="none" stroke="black" cx="766.1" cy="-540" rx="33.29" ry="18"/>
<text text-anchor="middle" x="766.1" y="-536.3" font-family="Times,serif" font-size="14.00">is&#45;23</text>
</g>
<!-- best&#45;21&#45;&gt;is&#45;23 -->
<g id="edge23" class="edge">
<title>best&#45;21&#45;&gt;is&#45;23</title>
<path fill="none" stroke="black" d="M642.04,-611.77C667.64,-597.17 707.54,-574.41 735.14,-558.66"/>
<polygon fill="black" stroke="black" points="737.04,-561.6 744,-553.61 733.58,-555.52 737.04,-561.6"/>
<text text-anchor="middle" x="729.6" y="-579.8" font-family="Times,serif" font-size="14.00">acl:relcl</text>
</g>
<!-- there&#45;22 -->
<g id="node22" class="node">
<title>there&#45;22</title>
<ellipse fill="none" stroke="black" cx="766.1" cy="-453" rx="50.09" ry="18"/>
<text text-anchor="middle" x="766.1" y="-449.3" font-family="Times,serif" font-size="14.00">there&#45;22</text>
</g>
<!-- is&#45;23&#45;&gt;there&#45;22 -->
<g id="edge22" class="edge">
<title>is&#45;23&#45;&gt;there&#45;22</title>
<path fill="none" stroke="black" d="M766.1,-521.8C766.1,-510.16 766.1,-494.55 766.1,-481.24"/>
<polygon fill="black" stroke="black" points="769.6,-481.18 766.1,-471.18 762.6,-481.18 769.6,-481.18"/>
<text text-anchor="middle" x="781.6" y="-492.8" font-family="Times,serif" font-size="14.00">expl</text>
</g>
<!-- come&#45;41 -->
<g id="node28" class="node">
<title>come&#45;41</title>
<ellipse fill="none" stroke="black" cx="954.1" cy="-453" rx="50.09" ry="18"/>
<text text-anchor="middle" x="954.1" y="-449.3" font-family="Times,serif" font-size="14.00">come&#45;41</text>
</g>
<!-- is&#45;23&#45;&gt;come&#45;41 -->
<g id="edge42" class="edge">
<title>is&#45;23&#45;&gt;come&#45;41</title>
<path fill="none" stroke="black" d="M790.67,-527.89C822.2,-513.64 877.25,-488.75 914.66,-471.83"/>
<polygon fill="black" stroke="black" points="916.57,-474.81 924.24,-467.5 913.69,-468.43 916.57,-474.81"/>
<text text-anchor="middle" x="895.1" y="-492.8" font-family="Times,serif" font-size="14.00">ccomp</text>
</g>
<!-- intended&#45;29 -->
<g id="node23" class="node">
<title>intended&#45;29</title>
<ellipse fill="none" stroke="black" cx="650.1" cy="-366" rx="66.09" ry="18"/>
<text text-anchor="middle" x="650.1" y="-362.3" font-family="Times,serif" font-size="14.00">intended&#45;29</text>
</g>
<!-- though&#45;25 -->
<g id="node24" class="node">
<title>though&#45;25</title>
<ellipse fill="none" stroke="black" cx="235.1" cy="-279" rx="57.69" ry="18"/>
<text text-anchor="middle" x="235.1" y="-275.3" font-family="Times,serif" font-size="14.00">though&#45;25</text>
</g>
<!-- intended&#45;29&#45;&gt;though&#45;25 -->
<g id="edge24" class="edge">
<title>intended&#45;29&#45;&gt;though&#45;25</title>
<path fill="none" stroke="black" d="M602.86,-353.32C593.38,-351.29 583.46,-349.39 574.1,-348 468.73,-332.33 437.78,-358.35 335.1,-330 311.62,-323.52 287.14,-311.38 268.27,-300.69"/>
<polygon fill="black" stroke="black" points="269.89,-297.58 259.49,-295.58 266.38,-303.63 269.89,-297.58"/>
<text text-anchor="middle" x="353.6" y="-318.8" font-family="Times,serif" font-size="14.00">mark</text>
</g>
<!-- it&#45;26 -->
<g id="node25" class="node">
<title>it&#45;26</title>
<ellipse fill="none" stroke="black" cx="343.1" cy="-279" rx="32.49" ry="18"/>
<text text-anchor="middle" x="343.1" y="-275.3" font-family="Times,serif" font-size="14.00">it&#45;26</text>
</g>
<!-- intended&#45;29&#45;&gt;it&#45;26 -->
<g id="edge25" class="edge">
<title>intended&#45;29&#45;&gt;it&#45;26</title>
<path fill="none" stroke="black" d="M602.42,-353.43C593.07,-351.42 583.31,-349.5 574.1,-348 496.48,-335.4 469.9,-362.05 398.1,-330 384.58,-323.96 372.12,-313.29 362.5,-303.35"/>
<polygon fill="black" stroke="black" points="365.07,-300.98 355.72,-295.99 359.92,-305.72 365.07,-300.98"/>
<text text-anchor="middle" x="436.1" y="-318.8" font-family="Times,serif" font-size="14.00">nsubj:pass</text>
</g>
<!-- is&#45;27 -->
<g id="node26" class="node">
<title>is&#45;27</title>
<ellipse fill="none" stroke="black" cx="432.1" cy="-279" rx="33.29" ry="18"/>
<text text-anchor="middle" x="432.1" y="-275.3" font-family="Times,serif" font-size="14.00">is&#45;27</text>
</g>
<!-- intended&#45;29&#45;&gt;is&#45;27 -->
<g id="edge26" class="edge">
<title>intended&#45;29&#45;&gt;is&#45;27</title>
<path fill="none" stroke="black" d="M600.94,-353.85C559.68,-344.42 506.74,-332.11 502.1,-330 485.81,-322.6 469.44,-311.19 456.63,-301.13"/>
<polygon fill="black" stroke="black" points="458.74,-298.33 448.77,-294.77 454.34,-303.78 458.74,-298.33"/>
<text text-anchor="middle" x="533.6" y="-318.8" font-family="Times,serif" font-size="14.00">aux:pass</text>
</g>
<!-- not&#45;28 -->
<g id="node27" class="node">
<title>not&#45;28</title>
<ellipse fill="none" stroke="black" cx="523.1" cy="-279" rx="40.09" ry="18"/>
<text text-anchor="middle" x="523.1" y="-275.3" font-family="Times,serif" font-size="14.00">not&#45;28</text>
</g>
<!-- intended&#45;29&#45;&gt;not&#45;28 -->
<g id="edge27" class="edge">
<title>intended&#45;29&#45;&gt;not&#45;28</title>
<path fill="none" stroke="black" d="M621.71,-349.7C611.28,-343.83 599.48,-336.87 589.1,-330 575.78,-321.19 561.6,-310.62 549.81,-301.46"/>
<polygon fill="black" stroke="black" points="551.72,-298.52 541.69,-295.1 547.4,-304.02 551.72,-298.52"/>
<text text-anchor="middle" x="617.6" y="-318.8" font-family="Times,serif" font-size="14.00">advmod</text>
</g>
<!-- primarily&#45;30 -->
<g id="node29" class="node">
<title>primarily&#45;30</title>
<ellipse fill="none" stroke="black" cx="650.1" cy="-279" rx="68.49" ry="18"/>
<text text-anchor="middle" x="650.1" y="-275.3" font-family="Times,serif" font-size="14.00">primarily&#45;30</text>
</g>
<!-- intended&#45;29&#45;&gt;primarily&#45;30 -->
<g id="edge29" class="edge">
<title>intended&#45;29&#45;&gt;primarily&#45;30</title>
<path fill="none" stroke="black" d="M650.1,-347.8C650.1,-336.16 650.1,-320.55 650.1,-307.24"/>
<polygon fill="black" stroke="black" points="653.6,-307.18 650.1,-297.18 646.6,-307.18 653.6,-307.18"/>
<text text-anchor="middle" x="678.6" y="-318.8" font-family="Times,serif" font-size="14.00">advmod</text>
</g>
<!-- dancers&#45;32 -->
<g id="node30" class="node">
<title>dancers&#45;32</title>
<ellipse fill="none" stroke="black" cx="798.1" cy="-279" rx="61.99" ry="18"/>
<text text-anchor="middle" x="798.1" y="-275.3" font-family="Times,serif" font-size="14.00">dancers&#45;32</text>
</g>
<!-- intended&#45;29&#45;&gt;dancers&#45;32 -->
<g id="edge31" class="edge">
<title>intended&#45;29&#45;&gt;dancers&#45;32</title>
<path fill="none" stroke="black" d="M677.13,-349.5C687.72,-343.42 699.98,-336.38 711.1,-330 728.02,-320.28 746.79,-309.5 762.55,-300.44"/>
<polygon fill="black" stroke="black" points="764.52,-303.34 771.45,-295.32 761.03,-297.27 764.52,-303.34"/>
<text text-anchor="middle" x="758.6" y="-318.8" font-family="Times,serif" font-size="14.00">obl:for</text>
</g>
<!-- actors&#45;34 -->
<g id="node32" class="node">
<title>actors&#45;34</title>
<ellipse fill="none" stroke="black" cx="837.1" cy="-192" rx="53.89" ry="18"/>
<text text-anchor="middle" x="837.1" y="-188.3" font-family="Times,serif" font-size="14.00">actors&#45;34</text>
</g>
<!-- intended&#45;29&#45;&gt;actors&#45;34 -->
<g id="edge33" class="edge">
<title>intended&#45;29&#45;&gt;actors&#45;34</title>
<path fill="none" stroke="black" d="M715.31,-362.48C764.92,-356.91 830.95,-340.99 869.1,-297 889.54,-273.42 895.81,-256.03 882.1,-228 879.65,-223 876.11,-218.51 872.07,-214.54"/>
<polygon fill="black" stroke="black" points="874.26,-211.81 864.39,-207.97 869.71,-217.13 874.26,-211.81"/>
<text text-anchor="middle" x="912.6" y="-275.3" font-family="Times,serif" font-size="14.00">obl:for</text>
</g>
<!-- come&#45;41&#45;&gt;intended&#45;29 -->
<g id="edge28" class="edge">
<title>come&#45;41&#45;&gt;intended&#45;29</title>
<path fill="none" stroke="black" d="M915.9,-441.32C862.5,-426.39 765.26,-399.2 704.36,-382.17"/>
<polygon fill="black" stroke="black" points="705.11,-378.75 694.54,-379.43 703.23,-385.49 705.11,-378.75"/>
<text text-anchor="middle" x="840.1" y="-405.8" font-family="Times,serif" font-size="14.00">advcl</text>
</g>
<!-- people&#45;35 -->
<g id="node34" class="node">
<title>people&#45;35</title>
<ellipse fill="none" stroke="black" cx="1017.1" cy="-279" rx="55.79" ry="18"/>
<text text-anchor="middle" x="1017.1" y="-275.3" font-family="Times,serif" font-size="14.00">people&#45;35</text>
</g>
<!-- come&#45;41&#45;&gt;people&#45;35 -->
<g id="edge35" class="edge">
<title>come&#45;41&#45;&gt;people&#45;35</title>
<path fill="none" stroke="black" d="M952.62,-434.74C951.47,-413.52 951.64,-376.79 963.1,-348 969.64,-331.57 981.52,-315.92 992.48,-303.78"/>
<polygon fill="black" stroke="black" points="995.18,-306.02 999.48,-296.34 990.08,-301.23 995.18,-306.02"/>
<text text-anchor="middle" x="983.1" y="-362.3" font-family="Times,serif" font-size="14.00">nsubj</text>
</g>
<!-- keep&#45;44 -->
<g id="node35" class="node">
<title>keep&#45;44</title>
<ellipse fill="none" stroke="black" cx="1059.1" cy="-366" rx="47.39" ry="18"/>
<text text-anchor="middle" x="1059.1" y="-362.3" font-family="Times,serif" font-size="14.00">keep&#45;44</text>
</g>
<!-- come&#45;41&#45;&gt;keep&#45;44 -->
<g id="edge45" class="edge">
<title>come&#45;41&#45;&gt;keep&#45;44</title>
<path fill="none" stroke="black" d="M973.85,-436.01C990.23,-422.75 1013.69,-403.75 1031.86,-389.05"/>
<polygon fill="black" stroke="black" points="1034.22,-391.64 1039.79,-382.63 1029.82,-386.2 1034.22,-391.64"/>
<text text-anchor="middle" x="1036.6" y="-405.8" font-family="Times,serif" font-size="14.00">xcomp</text>
</g>
<!-- along&#45;42 -->
<g id="node41" class="node">
<title>along&#45;42</title>
<ellipse fill="none" stroke="black" cx="1175.1" cy="-366" rx="50.89" ry="18"/>
<text text-anchor="middle" x="1175.1" y="-362.3" font-family="Times,serif" font-size="14.00">along&#45;42</text>
</g>
<!-- come&#45;41&#45;&gt;along&#45;42 -->
<g id="edge43" class="edge">
<title>come&#45;41&#45;&gt;along&#45;42</title>
<path fill="none" stroke="black" d="M991.89,-441.15C1013.28,-434.72 1040.42,-426.06 1064.1,-417 1088.75,-407.56 1115.76,-395.44 1136.96,-385.49"/>
<polygon fill="black" stroke="black" points="1138.73,-388.53 1146.27,-381.09 1135.73,-382.2 1138.73,-388.53"/>
<text text-anchor="middle" x="1148.1" y="-405.8" font-family="Times,serif" font-size="14.00">compound:prt</text>
</g>
<!-- for&#45;31 -->
<g id="node31" class="node">
<title>for&#45;31</title>
<ellipse fill="none" stroke="black" cx="727.1" cy="-192" rx="38.19" ry="18"/>
<text text-anchor="middle" x="727.1" y="-188.3" font-family="Times,serif" font-size="14.00">for&#45;31</text>
</g>
<!-- dancers&#45;32&#45;&gt;for&#45;31 -->
<g id="edge30" class="edge">
<title>dancers&#45;32&#45;&gt;for&#45;31</title>
<path fill="none" stroke="black" d="M784.07,-261.21C773.46,-248.51 758.76,-230.9 746.94,-216.76"/>
<polygon fill="black" stroke="black" points="749.47,-214.33 740.37,-208.9 744.1,-218.81 749.47,-214.33"/>
<text text-anchor="middle" x="783.1" y="-231.8" font-family="Times,serif" font-size="14.00">case</text>
</g>
<!-- dancers&#45;32&#45;&gt;actors&#45;34 -->
<g id="edge34" class="edge">
<title>dancers&#45;32&#45;&gt;actors&#45;34</title>
<path fill="none" stroke="black" d="M805.99,-260.8C811.47,-248.85 818.87,-232.72 825.08,-219.18"/>
<polygon fill="black" stroke="black" points="828.36,-220.43 829.35,-209.89 822,-217.51 828.36,-220.43"/>
<text text-anchor="middle" x="850.6" y="-231.8" font-family="Times,serif" font-size="14.00">conj:and</text>
</g>
<!-- and&#45;33 -->
<g id="node33" class="node">
<title>and&#45;33</title>
<ellipse fill="none" stroke="black" cx="833.1" cy="-105" rx="42.49" ry="18"/>
<text text-anchor="middle" x="833.1" y="-101.3" font-family="Times,serif" font-size="14.00">and&#45;33</text>
</g>
<!-- actors&#45;34&#45;&gt;and&#45;33 -->
<g id="edge32" class="edge">
<title>actors&#45;34&#45;&gt;and&#45;33</title>
<path fill="none" stroke="black" d="M836.29,-173.8C835.74,-162.16 835.01,-146.55 834.38,-133.24"/>
<polygon fill="black" stroke="black" points="837.87,-133 833.91,-123.18 830.88,-133.33 837.87,-133"/>
<text text-anchor="middle" x="844.1" y="-144.8" font-family="Times,serif" font-size="14.00">cc</text>
</g>
<!-- sorts&#45;38 -->
<g id="node36" class="node">
<title>sorts&#45;38</title>
<ellipse fill="none" stroke="black" cx="1039.1" cy="-192" rx="48.99" ry="18"/>
<text text-anchor="middle" x="1039.1" y="-188.3" font-family="Times,serif" font-size="14.00">sorts&#45;38</text>
</g>
<!-- people&#45;35&#45;&gt;sorts&#45;38 -->
<g id="edge39" class="edge">
<title>people&#45;35&#45;&gt;sorts&#45;38</title>
<path fill="none" stroke="black" d="M1021.55,-260.8C1024.56,-249.16 1028.6,-233.55 1032.05,-220.24"/>
<polygon fill="black" stroke="black" points="1035.53,-220.73 1034.65,-210.18 1028.76,-218.98 1035.53,-220.73"/>
<text text-anchor="middle" x="1069.6" y="-231.8" font-family="Times,serif" font-size="14.00">nmod:from</text>
</g>
<!-- keep&#45;44&#45;&gt;people&#45;35 -->
<g id="edge36" class="edge">
<title>keep&#45;44&#45;&gt;people&#45;35</title>
<path fill="none" stroke="black" d="M1037.14,-349.8C1030.89,-344.31 1024.79,-337.58 1021.1,-330 1017.69,-323 1016.17,-314.8 1015.64,-307.08"/>
<polygon fill="black" stroke="black" points="1019.14,-306.95 1015.45,-297.02 1012.14,-307.08 1019.14,-306.95"/>
<text text-anchor="middle" x="1062.1" y="-318.8" font-family="Times,serif" font-size="14.00">nsubj:xsubj</text>
</g>
<!-- to&#45;43 -->
<g id="node42" class="node">
<title>to&#45;43</title>
<ellipse fill="none" stroke="black" cx="1125.1" cy="-279" rx="34.39" ry="18"/>
<text text-anchor="middle" x="1125.1" y="-275.3" font-family="Times,serif" font-size="14.00">to&#45;43</text>
</g>
<!-- keep&#45;44&#45;&gt;to&#45;43 -->
<g id="edge44" class="edge">
<title>keep&#45;44&#45;&gt;to&#45;43</title>
<path fill="none" stroke="black" d="M1082.02,-350.12C1089.44,-344.48 1097.26,-337.58 1103.1,-330 1108.53,-322.95 1112.94,-314.35 1116.34,-306.28"/>
<polygon fill="black" stroke="black" points="1119.64,-307.44 1119.99,-296.85 1113.12,-304.91 1119.64,-307.44"/>
<text text-anchor="middle" x="1129.6" y="-318.8" font-family="Times,serif" font-size="14.00">mark</text>
</g>
<!-- fit&#45;45 -->
<g id="node43" class="node">
<title>fit&#45;45</title>
<ellipse fill="none" stroke="black" cx="1213.1" cy="-279" rx="36" ry="18"/>
<text text-anchor="middle" x="1213.1" y="-275.3" font-family="Times,serif" font-size="14.00">fit&#45;45</text>
</g>
<!-- keep&#45;44&#45;&gt;fit&#45;45 -->
<g id="edge46" class="edge">
<title>keep&#45;44&#45;&gt;fit&#45;45</title>
<path fill="none" stroke="black" d="M1095.66,-354.32C1113.33,-348.4 1134.46,-340.17 1152.1,-330 1165.33,-322.37 1178.61,-311.89 1189.39,-302.5"/>
<polygon fill="black" stroke="black" points="1191.99,-304.87 1197.1,-295.59 1187.32,-299.66 1191.99,-304.87"/>
<text text-anchor="middle" x="1184.1" y="-318.8" font-family="Times,serif" font-size="14.00">obj</text>
</g>
<!-- from&#45;36 -->
<g id="node37" class="node">
<title>from&#45;36</title>
<ellipse fill="none" stroke="black" cx="941.1" cy="-105" rx="47.39" ry="18"/>
<text text-anchor="middle" x="941.1" y="-101.3" font-family="Times,serif" font-size="14.00">from&#45;36</text>
</g>
<!-- sorts&#45;38&#45;&gt;from&#45;36 -->
<g id="edge37" class="edge">
<title>sorts&#45;38&#45;&gt;from&#45;36</title>
<path fill="none" stroke="black" d="M1020.66,-175.01C1005.61,-161.95 984.14,-143.33 967.3,-128.72"/>
<polygon fill="black" stroke="black" points="969.29,-125.82 959.45,-121.92 964.71,-131.11 969.29,-125.82"/>
<text text-anchor="middle" x="1012.1" y="-144.8" font-family="Times,serif" font-size="14.00">case</text>
</g>
<!-- all&#45;37 -->
<g id="node38" class="node">
<title>all&#45;37</title>
<ellipse fill="none" stroke="black" cx="1043.1" cy="-105" rx="36.29" ry="18"/>
<text text-anchor="middle" x="1043.1" y="-101.3" font-family="Times,serif" font-size="14.00">all&#45;37</text>
</g>
<!-- sorts&#45;38&#45;&gt;all&#45;37 -->
<g id="edge38" class="edge">
<title>sorts&#45;38&#45;&gt;all&#45;37</title>
<path fill="none" stroke="black" d="M1039.91,-173.8C1040.45,-162.16 1041.19,-146.55 1041.82,-133.24"/>
<polygon fill="black" stroke="black" points="1045.31,-133.33 1042.29,-123.18 1038.32,-133 1045.31,-133.33"/>
<text text-anchor="middle" x="1053.1" y="-144.8" font-family="Times,serif" font-size="14.00">det</text>
</g>
<!-- professions&#45;40 -->
<g id="node39" class="node">
<title>professions&#45;40</title>
<ellipse fill="none" stroke="black" cx="1176.1" cy="-105" rx="78.79" ry="18"/>
<text text-anchor="middle" x="1176.1" y="-101.3" font-family="Times,serif" font-size="14.00">professions&#45;40</text>
</g>
<!-- sorts&#45;38&#45;&gt;professions&#45;40 -->
<g id="edge41" class="edge">
<title>sorts&#45;38&#45;&gt;professions&#45;40</title>
<path fill="none" stroke="black" d="M1062.96,-176.19C1084.67,-162.72 1116.98,-142.68 1141.52,-127.45"/>
<polygon fill="black" stroke="black" points="1143.53,-130.33 1150.18,-122.08 1139.83,-124.38 1143.53,-130.33"/>
<text text-anchor="middle" x="1144.1" y="-144.8" font-family="Times,serif" font-size="14.00">nmod:of</text>
</g>
<!-- of&#45;39 -->
<g id="node40" class="node">
<title>of&#45;39</title>
<ellipse fill="none" stroke="black" cx="1176.1" cy="-18" rx="34.39" ry="18"/>
<text text-anchor="middle" x="1176.1" y="-14.3" font-family="Times,serif" font-size="14.00">of&#45;39</text>
</g>
<!-- professions&#45;40&#45;&gt;of&#45;39 -->
<g id="edge40" class="edge">
<title>professions&#45;40&#45;&gt;of&#45;39</title>
<path fill="none" stroke="black" d="M1176.1,-86.8C1176.1,-75.16 1176.1,-59.55 1176.1,-46.24"/>
<polygon fill="black" stroke="black" points="1179.6,-46.18 1176.1,-36.18 1172.6,-46.18 1179.6,-46.18"/>
<text text-anchor="middle" x="1192.1" y="-57.8" font-family="Times,serif" font-size="14.00">case</text>
</g>
</g>
</svg>
